<?xml version="1.0" standalone="no"?>
<!DOCTYPE svg PUBLIC "-//W3C//DTD SVG 20010904//EN"
 "http://www.w3.org/TR/2001/REC-SVG-20010904/DTD/svg10.dtd">
<svg version="1.0" xmlns="http://www.w3.org/2000/svg"
 width="1069.000000pt" height="1104.000000pt" viewBox="0 0 1069.000000 1104.000000"
 preserveAspectRatio="xMidYMid meet">
<metadata>
Created by potrace 1.16, written by Peter Selinger 2001-2019
</metadata>
<g transform="translate(0.000000,1104.000000) scale(0.100000,-0.100000)"
fill="#000000" stroke="none">
<path d="M0 5519 l0 -5520 429 2 c354 1 431 4 435 15 3 8 13 14 22 14 10 0 14
-5 10 -15 -4 -12 3 -15 29 -15 28 0 33 3 28 16 -4 12 -2 15 8 12 8 -3 13 -11
11 -17 -3 -15 640 -16 668 -1 13 7 21 7 25 0 4 -7 251 -10 711 -10 640 0 704
1 704 16 0 10 6 14 15 10 8 -3 15 -1 15 4 0 6 -7 11 -15 11 -8 1 -20 2 -26 3
-7 0 -15 10 -20 21 -12 32 -10 222 5 318 13 89 26 124 26 71 0 -16 10 -42 21
-59 20 -28 21 -29 15 -5 -37 149 -41 197 -29 311 5 52 8 59 15 39 5 -17 6 -10
4 24 -6 79 10 168 34 188 11 9 15 18 9 20 -24 8 -33 305 -11 343 10 18 11 18
12 -10 0 -21 3 -26 9 -16 5 8 7 47 4 87 -6 80 4 130 17 84 8 -31 21 329 15
424 -6 87 6 114 25 54 20 -66 24 -27 10 103 -12 111 -12 118 7 146 48 70 55
122 20 139 -12 7 -51 26 -86 44 -102 51 -231 156 -217 178 6 10 -18 23 -79 42
-56 17 -85 47 -85 86 0 27 -30 109 -60 166 -7 12 -3 20 15 32 13 9 29 16 34
16 5 0 88 25 184 55 96 30 181 55 190 55 13 0 17 9 17 38 0 21 -5 43 -12 50
-18 18 -88 14 -137 -8 -24 -11 -56 -20 -72 -20 -15 0 -54 -7 -86 -15 -71 -19
-191 -35 -209 -28 -14 5 -34 55 -34 85 0 11 7 26 15 34 11 12 12 20 3 42 -7
15 -18 34 -25 43 -14 17 -17 57 -5 75 12 18 42 8 78 -27 19 -18 34 -28 34 -23
0 15 -47 76 -81 105 -41 35 -61 120 -65 284 -2 72 -6 150 -10 174 -3 24 -2 60
4 80 21 69 23 119 7 135 -16 15 -21 77 -7 90 4 4 21 60 37 124 l30 117 35 -3
c19 -2 40 -7 45 -10 6 -4 18 -5 29 -3 10 1 15 -2 12 -7 -4 -6 -1 -14 5 -18 6
-3 15 0 20 7 7 11 13 11 38 -4 16 -9 34 -17 40 -17 6 0 32 -16 58 -36 26 -19
83 -54 126 -76 44 -22 116 -63 159 -90 86 -56 84 -51 48 -133 -10 -22 -23 -62
-29 -90 -7 -27 -19 -63 -27 -80 -8 -16 -17 -52 -19 -80 -2 -27 -2 -40 1 -28 3
12 12 27 21 35 15 12 16 9 9 -27 -14 -84 -25 -288 -26 -507 0 -218 0 -227 20
-238 13 -7 20 -7 20 0 0 5 -5 10 -11 10 -7 0 -8 23 -5 68 3 37 8 216 11 397 5
328 19 485 44 493 6 2 11 9 11 15 0 14 38 94 60 127 45 66 19 102 -55 76 -52
-18 -71 -9 -154 80 -35 38 -84 86 -110 106 -54 43 -203 133 -278 168 -29 14
-53 30 -53 36 0 13 73 114 112 156 l26 26 11 324 c17 500 20 549 36 608 l15
55 -4 -47 c-2 -26 0 -48 4 -50 4 -2 1 -70 -7 -153 -8 -82 -14 -154 -13 -160 8
-56 12 -361 7 -465 -1 -23 2 -34 11 -33 6 2 12 -4 12 -13 0 -8 -4 -12 -10 -9
-5 3 -10 0 -10 -7 0 -7 -20 -35 -45 -62 l-45 -49 25 -13 c14 -7 29 -15 34 -18
5 -3 16 6 26 20 13 20 14 28 4 40 -6 8 -7 14 -3 14 5 0 15 -9 22 -20 15 -24
29 -18 43 17 8 21 12 23 24 13 12 -10 15 -9 15 4 0 9 4 16 10 16 16 0 50 33
50 49 0 13 2 13 15 0 16 -15 11 -54 -5 -44 -10 6 -7 -15 4 -33 12 -20 -2 -28
-25 -14 -11 7 -24 10 -29 7 -15 -9 -12 -35 5 -41 24 -10 17 -24 -10 -24 -15 0
-25 5 -24 13 3 25 -1 38 -12 32 -6 -4 -8 -13 -5 -20 3 -8 -4 -17 -15 -20 -10
-4 -19 -13 -19 -21 0 -8 -6 -14 -12 -14 -20 -1 23 -30 43 -30 10 0 21 4 24 10
3 5 0 7 -9 4 -8 -3 -21 -2 -27 2 -8 5 4 12 32 19 49 12 65 9 50 -9 -13 -15 -3
-56 14 -56 22 0 40 29 27 42 -7 7 -12 21 -12 31 0 14 4 17 18 12 40 -17 49
-16 54 3 4 15 0 22 -15 26 -27 7 -14 20 21 21 20 0 28 6 30 23 3 17 -1 22 -20
22 -32 0 -68 27 -50 38 18 12 -36 49 -93 64 -38 10 -48 10 -54 -1 -5 -7 -17
-11 -27 -9 -16 4 -15 7 9 16 15 6 27 17 28 24 1 7 2 31 4 53 1 22 6 62 10 89
5 33 4 50 -4 55 -22 14 -41 179 -35 294 4 59 11 107 15 107 5 0 9 33 10 73 0
39 4 97 8 127 13 87 -3 116 -34 63 -15 -27 -16 -23 -12 72 8 204 91 295 271
295 43 0 125 7 182 15 76 12 159 15 319 12 l216 -4 32 34 c52 55 157 119 232
141 158 47 304 36 426 -33 78 -44 109 -74 174 -164 44 -61 55 -70 90 -75 44
-7 111 -28 121 -39 4 -4 14 -7 21 -7 21 0 114 -66 105 -75 -4 -5 -1 -5 6 -1 7
4 25 0 40 -10 57 -36 65 -53 78 -158 16 -128 19 -520 3 -511 -7 5 -8 38 -4 99
5 65 3 87 -4 76 -6 -8 -11 -32 -11 -52 0 -21 -4 -38 -8 -38 -12 0 -34 -124
-26 -144 3 -9 1 -16 -4 -16 -7 0 -6 -12 3 -32 8 -18 19 -32 25 -30 5 1 10 -4
10 -11 0 -8 9 -22 20 -32 11 -10 20 -24 20 -32 0 -7 6 -13 14 -13 25 0 116
-109 146 -176 17 -36 30 -70 30 -75 0 -4 -14 -25 -32 -45 -29 -32 -30 -38 -18
-57 7 -12 31 -55 53 -94 21 -40 42 -73 47 -73 5 0 20 14 33 30 14 17 28 30 31
30 8 0 46 -67 46 -81 -1 -8 -28 -32 -61 -53 -44 -29 -58 -43 -53 -55 23 -54 6
-86 -73 -135 -50 -30 -71 -33 -88 -9 -12 16 -19 12 -72 -42 -33 -33 -75 -81
-95 -108 -23 -30 -38 -43 -42 -35 -3 7 -3 -50 0 -127 5 -108 11 -158 30 -218
13 -43 24 -87 24 -97 0 -11 14 -41 30 -67 22 -34 30 -59 30 -92 0 -53 25 -109
78 -173 44 -53 67 -130 78 -265 9 -110 -10 -149 -130 -268 -66 -64 -80 -83
-53 -66 56 34 60 18 15 -54 -19 -29 -90 -94 -111 -101 -12 -4 -16 -12 -13 -21
4 -9 -2 -23 -12 -32 -21 -18 -38 -61 -24 -61 15 0 12 -161 -4 -192 -17 -33
-17 -38 -14 -220 1 -75 -3 -159 -9 -185 -6 -26 -22 -116 -36 -199 -13 -82 -29
-163 -36 -180 -7 -16 -11 -66 -10 -115 1 -60 -4 -107 -18 -156 -15 -55 -20
-106 -20 -225 -1 -84 -8 -193 -16 -243 -28 -170 -38 -336 -24 -380 7 -22 14
-83 15 -135 1 -52 2 -101 3 -107 1 -17 281 -19 281 -2 0 7 -10 9 -24 5 -35 -9
-41 9 -12 37 l24 24 13 -34 c9 -24 17 -32 30 -28 10 3 20 1 24 -5 9 -14 62
-13 67 2 4 10 10 10 30 1 18 -8 120 -12 327 -12 l301 -1 0 25 c0 14 5 25 10
25 6 0 8 -11 4 -25 -3 -14 -2 -25 4 -25 18 0 30 107 17 149 -6 18 -5 23 6 19
8 -2 15 -18 17 -34 1 -16 5 -53 8 -81 l5 -53 43 0 43 0 6 197 c27 836 39 1467
27 1491 -12 26 -25 203 -33 445 l-3 108 30 -3 31 -3 11 350 c7 193 12 372 13
398 1 56 18 60 40 9 16 -34 35 -42 45 -17 4 11 20 15 55 15 62 0 81 7 81 31 0
16 -5 18 -27 13 -16 -4 -32 -13 -36 -21 -10 -17 -75 -8 -97 14 -13 12 -13 13
4 7 17 -6 17 -5 6 17 -7 13 -17 27 -22 30 -5 3 30 14 79 24 48 10 95 25 103
33 13 13 11 14 -15 8 -16 -4 -68 -14 -114 -22 -69 -12 -86 -13 -92 -2 -14 22
-10 51 12 87 16 26 18 39 11 55 -5 12 -14 33 -21 49 -7 18 -18 27 -33 27 -13
0 -38 14 -56 31 -39 36 -55 30 -46 -17 l6 -35 -43 7 c-24 4 -48 7 -54 8 -16 2
-12 -36 5 -44 8 -4 25 -12 37 -18 13 -7 30 -12 38 -12 9 0 33 -14 55 -31 30
-24 38 -38 38 -64 0 -18 5 -42 11 -54 10 -17 8 -26 -6 -44 -16 -22 -19 -22
-46 -9 -16 8 -31 20 -34 28 -3 8 -11 14 -17 14 -7 0 -27 16 -46 35 -36 37 -53
37 -44 -1 8 -31 -11 -32 -30 -1 -17 26 -36 144 -36 223 0 69 47 173 95 210 37
28 124 47 176 39 l36 -6 1 68 c1 65 11 328 32 918 18 478 18 477 70 430 22
-20 22 -22 16 -329 -4 -170 -9 -312 -11 -316 -3 -5 -16 -336 -28 -770 -2 -52
-1 -55 23 -55 42 0 50 33 47 209 -1 120 1 160 11 163 14 5 17 80 2 85 -10 3 0
130 20 253 6 33 13 114 16 180 4 75 11 130 20 148 9 17 13 42 10 63 l-6 34 46
0 c26 0 91 -7 146 -16 110 -17 133 -14 125 17 -3 11 1 32 10 47 12 22 14 23
10 5 -3 -12 1 -27 9 -34 11 -9 14 -6 14 15 0 15 5 47 11 71 8 32 8 48 -1 65
-10 18 -9 24 1 31 11 6 10 11 -2 26 -21 24 -31 53 -18 53 6 0 5 9 -2 22 -7 12
-15 47 -18 77 -6 58 -30 84 -32 34 l-1 -28 -10 28 c-11 31 4 83 21 72 18 -10
41 39 41 88 0 33 5 49 15 53 10 4 15 20 15 46 0 32 6 45 27 61 l26 21 -29 13
c-36 15 -57 16 -49 3 3 -5 -1 -10 -10 -10 -9 0 -13 5 -10 10 4 6 -5 10 -21 10
-15 0 -25 3 -21 6 3 3 43 7 89 9 262 10 507 15 863 20 521 7 776 15 769 26 -3
5 0 9 7 9 7 0 9 9 5 23 -3 12 -3 46 1 75 l6 52 37 0 c21 0 43 6 50 14 6 8 21
16 32 18 12 2 26 11 32 21 9 15 7 20 -9 30 -18 11 -17 12 15 18 l35 6 -42 2
c-23 0 -43 -4 -45 -10 -3 -9 -10 -9 -28 1 -14 8 -43 10 -74 7 -28 -2 -62 -2
-76 2 -17 5 -1 9 55 13 44 3 84 3 88 1 5 -3 132 -5 282 -4 191 2 275 -1 280
-9 4 -7 19 -9 35 -5 15 3 31 2 34 -4 10 -15 -30 -23 -74 -16 -34 6 -40 4 -40
-10 0 -14 8 -16 44 -14 32 3 42 1 39 -8 -3 -8 -22 -13 -44 -13 -21 0 -39 -4
-39 -10 0 -5 18 -10 40 -10 22 0 40 -3 40 -7 0 -9 48 -33 66 -33 7 0 14 -3 16
-7 4 -11 348 8 348 19 0 11 797 10 818 -1 10 -5 42 -11 72 -13 l55 -3 8 -105
c10 -141 12 -150 42 -150 13 0 28 -8 34 -17 14 -26 25 46 17 116 -3 31 -12
105 -19 164 l-13 108 31 -3 c28 -3 30 -5 31 -48 2 -69 2 -70 34 -70 l31 0 -3
72 c-2 56 -7 73 -18 75 -8 0 -54 7 -102 14 -80 11 -88 14 -97 38 -5 14 -10 19
-10 11 -2 -24 -20 10 -22 40 -1 14 -5 0 -10 -30 -14 -88 -8 -100 51 -100 27 0
52 -5 56 -11 9 -15 -202 -8 -851 30 -404 24 -959 35 -1660 33 -407 -2 -812 -6
-900 -10 -88 -4 -178 -5 -199 -3 -39 3 -39 4 -15 18 l24 14 -24 -7 c-23 -6
-24 -5 -19 40 3 25 2 46 -3 46 -5 0 -9 36 -9 80 0 44 4 80 8 80 5 0 14 46 20
103 12 100 7 201 -9 223 -5 6 -2 20 7 32 9 13 13 28 11 35 -2 6 2 27 9 46 19
47 19 121 -1 121 -11 0 -15 11 -15 40 0 29 4 40 15 40 11 0 15 11 15 40 0 28
4 40 14 40 11 0 13 9 9 38 -3 20 -10 39 -15 40 -10 4 -11 162 0 162 17 0 31
54 25 102 -4 37 -2 52 8 59 11 6 14 41 14 164 0 108 3 155 11 155 7 0 16 46
24 120 7 66 17 120 22 120 5 0 8 26 7 58 -1 31 3 70 10 85 19 47 14 98 -9 104
-36 10 -18 66 25 76 11 3 -5 3 -35 1 -40 -3 -48 -2 -29 5 14 4 55 22 90 38 35
17 73 33 84 36 11 2 70 18 130 35 102 28 221 53 390 82 39 6 93 17 120 24 97
25 442 68 690 86 142 10 943 7 1162 -5 54 -3 94 -1 98 5 3 6 -9 9 -31 7 -32
-2 -37 1 -39 21 -2 21 9 26 53 25 6 -1 12 7 12 17 0 13 9 20 28 23 22 3 19 5
-13 7 -30 2 -22 5 35 10 228 23 632 -52 808 -151 37 -21 52 -25 52 -15 0 20
-16 31 -115 71 -219 91 -453 136 -885 170 -223 17 -886 20 -1090 5 -189 -14
-448 -39 -515 -50 -33 -5 -96 -14 -140 -20 -72 -11 -138 -22 -300 -50 -54 -9
-126 -26 -309 -71 -133 -33 -125 -32 -149 -30 -10 0 -15 6 -12 12 4 6 13 8 19
6 7 -3 19 -1 27 4 9 6 -3 9 -36 9 -32 0 -45 3 -36 9 9 6 12 20 8 42 -2 20 2
49 10 69 9 19 15 56 14 83 -2 43 0 47 21 48 13 0 17 3 11 6 -20 7 -17 73 3 73
13 0 15 14 13 93 -2 71 2 99 15 125 15 29 17 57 14 193 -2 122 0 159 10 159 6
0 12 5 12 10 0 6 -4 10 -9 10 -6 0 -13 -4 -16 -10 -10 -16 -35 -12 -29 5 4 9
0 15 -10 15 -9 0 -16 5 -16 10 0 6 7 10 15 10 8 0 15 3 15 8 0 20 307 141 460
181 25 7 65 19 90 26 25 8 74 21 110 30 36 9 81 21 100 26 19 5 71 16 115 25
44 9 98 20 120 24 22 5 58 10 80 11 38 1 38 2 10 8 -29 6 -28 7 20 20 89 23
95 31 21 26 -38 -2 -67 -2 -64 0 3 3 47 16 99 29 105 27 264 44 239 27 -8 -6
-10 -11 -4 -11 5 0 14 4 20 9 14 13 74 24 74 13 0 -5 15 -14 33 -20 l32 -10
-35 -2 c-27 -1 -31 -3 -15 -9 14 -6 7 -9 -29 -14 -27 -4 -64 -7 -82 -7 -18 0
-36 -5 -39 -11 -5 -7 7 -9 36 -5 189 25 794 38 1029 22 214 -14 377 -38 550
-81 182 -46 370 -134 430 -202 22 -25 40 -52 40 -59 0 -8 5 -14 10 -14 6 0 10
42 10 105 l0 105 -53 53 c-105 102 -291 188 -532 247 -71 18 -144 36 -160 41
-102 29 -933 36 -1140 9 -303 -39 -720 -114 -900 -160 -138 -36 -365 -109
-379 -121 -6 -5 -17 -9 -25 -9 -9 0 -29 -7 -45 -15 -15 -8 -32 -15 -37 -15 -5
0 -44 -16 -85 -36 -42 -20 -78 -33 -81 -31 -2 3 5 11 17 17 18 10 20 14 9 21
-10 6 -8 9 9 9 13 0 22 6 22 15 0 8 -7 15 -15 15 -20 0 -19 26 0 34 13 5 15
21 11 96 -6 101 -8 107 -42 120 -23 9 -24 14 -24 99 0 49 5 93 10 96 6 3 10
42 10 86 0 46 4 79 10 79 6 0 10 19 9 43 -1 33 -2 37 -8 18 -10 -37 -28 -36
-34 1 -3 18 -9 48 -13 67 -6 29 -4 33 10 28 11 -5 15 -3 10 5 -5 7 -2 9 9 5
12 -4 14 -2 10 10 -4 11 -2 14 5 9 7 -4 12 -1 12 8 0 23 95 120 138 142 20 10
48 26 62 35 50 33 367 187 440 214 41 16 77 31 80 35 3 4 24 11 47 15 42 7 61
19 45 29 -4 2 -22 -2 -40 -11 -33 -16 -102 -11 -102 7 0 14 24 12 37 -1 9 -9
11 -3 11 22 -1 19 -3 28 -5 22 -3 -7 -15 -13 -28 -13 -13 0 -27 -4 -30 -10 -3
-5 -13 -10 -21 -10 -8 0 -14 5 -14 10 0 6 6 10 12 10 7 0 42 11 78 24 36 14
103 39 150 56 l85 31 -53 -6 c-30 -3 -70 -12 -90 -20 -21 -7 -71 -25 -112 -40
-124 -45 -250 -96 -306 -127 -30 -15 -60 -28 -69 -28 -8 0 -15 -4 -15 -9 0 -5
-14 -14 -31 -22 -65 -26 -236 -172 -274 -231 -9 -15 -21 -25 -26 -22 -5 3 -9
-4 -9 -14 0 -11 -6 -25 -14 -31 -12 -10 -12 -3 1 51 16 70 62 303 70 358 5 36
20 101 30 126 4 12 -479 14 -3661 14 l-3666 0 0 -5521z m3345 5273 c-3 -14 -9
-22 -12 -18 -8 8 -5 112 5 151 5 23 8 14 10 -40 2 -38 0 -80 -3 -93z m254 46
c1 -21 -3 -38 -8 -38 -16 0 -25 -41 -22 -102 1 -46 -2 -58 -14 -58 -27 0 -19
202 12 290 8 22 31 -46 32 -92z m-439 -69 c0 -27 -4 -49 -9 -49 -4 0 -8 24 -7
54 0 30 4 52 8 50 4 -3 8 -27 8 -55z m477 -85 c-4 -64 -9 -119 -13 -123 -7 -7
-94 -5 -101 3 -11 10 8 56 22 56 8 0 15 -4 15 -10 0 -5 9 -10 20 -10 13 0 20
7 20 20 0 11 -4 20 -10 20 -14 0 -13 103 2 135 6 14 19 25 31 25 19 0 20 -5
14 -116z m-283 27 l6 -34 -21 27 c-12 15 -18 33 -15 43 9 22 22 6 30 -36z
m663 17 c-3 -8 -6 -5 -6 6 -1 11 2 17 5 13 3 -3 4 -12 1 -19z m-871 -106 c-11
-10 -15 4 -8 28 l7 25 3 -23 c2 -13 1 -26 -2 -30z m-33 -19 c-7 -2 -19 -2 -25
0 -7 3 -2 5 12 5 14 0 19 -2 13 -5z m32 -3 c3 -5 1 -10 -4 -10 -6 0 -11 5 -11
10 0 6 2 10 4 10 3 0 8 -4 11 -10z m4225 -30 c0 -5 -4 -10 -10 -10 -5 0 -10 5
-10 10 0 6 5 10 10 10 6 0 10 -4 10 -10z m-3661 -26 c2 -2 -18 -5 -45 -5 l-49
-1 50 -14 50 -13 -45 3 c-89 8 -145 18 -155 28 -7 7 4 9 35 5 25 -3 54 -2 65
3 18 7 84 2 94 -6z m78 0 c-3 -3 -12 -4 -19 -1 -8 3 -5 6 6 6 11 1 17 -2 13
-5z m3529 -19 c-8 -8 -18 -15 -22 -15 -3 0 -1 7 6 15 7 8 17 15 22 15 5 0 3
-7 -6 -15z m-3488 -32 c-10 -2 -26 -2 -35 0 -10 3 -2 5 17 5 19 0 27 -2 18 -5z
m3432 -43 c0 -5 -5 -10 -11 -10 -5 0 -7 5 -4 10 3 6 8 10 11 10 2 0 4 -4 4
-10z m-4690 -60 c0 -16 -4 -30 -8 -30 -5 0 -7 14 -4 30 2 17 6 30 8 30 2 0 4
-13 4 -30z m4625 -124 c-9 -14 -23 -45 -30 -68 -8 -24 -14 -34 -14 -23 -1 10
11 54 27 97 23 66 28 74 30 49 2 -16 -4 -41 -13 -55z m-4425 34 c0 -5 -7 -7
-15 -4 -8 4 -15 8 -15 10 0 2 7 4 15 4 8 0 15 -4 15 -10z m85 -20 c3 -5 2 -10
-4 -10 -5 0 -13 5 -16 10 -3 6 -2 10 4 10 5 0 13 -4 16 -10z m4295 -180 c0
-11 -4 -20 -9 -20 -5 0 -7 9 -4 20 3 11 7 20 9 20 2 0 4 -9 4 -20z m-33 -112
c-3 -7 -5 -2 -5 12 0 14 2 19 5 13 2 -7 2 -19 0 -25z m-12 -68 c-4 -17 -9 -30
-11 -27 -2 2 -1 18 2 36 4 17 9 30 11 27 3 -2 2 -19 -2 -36z m175 -96 c0 -14
-3 -14 -15 -4 -8 7 -15 14 -15 16 0 2 7 4 15 4 8 0 15 -7 15 -16z m1597 -20
c-3 -3 -12 -4 -19 -1 -8 3 -5 6 6 6 11 1 17 -2 13 -5z m-1672 -284 c-3 -5 -12
-10 -18 -10 -7 0 -6 4 3 10 19 12 23 12 15 0z m-5965 -4 c0 -8 -51 -13 -56 -5
-3 5 9 9 25 9 17 0 31 -2 31 -4z m11 -39 c-13 -13 -26 -3 -16 12 3 6 11 8 17
5 6 -4 6 -10 -1 -17z m89 -32 c0 -13 6 -26 13 -28 6 -3 -4 -3 -23 0 -44 7 -69
28 -52 45 9 9 13 7 18 -5 10 -26 37 -22 29 4 -5 15 -4 19 4 15 6 -4 11 -18 11
-31z m-50 -40 c7 -9 11 -17 9 -20 -3 -2 -18 -21 -34 -41 -75 -92 -70 -88 -93
-75 -45 24 -21 110 31 111 9 0 17 5 17 10 0 6 10 15 23 20 31 12 33 12 47 -5z
m330 -55 c0 -5 -4 -10 -9 -10 -6 0 -13 5 -16 10 -3 6 1 10 9 10 9 0 16 -4 16
-10z m40 -60 c0 -6 6 -10 14 -10 7 0 16 -8 19 -17 4 -10 16 -31 29 -46 16 -19
19 -30 11 -35 -6 -4 -15 -20 -19 -36 l-7 -29 -19 38 c-16 30 -17 39 -7 46 10
6 9 15 -6 43 -26 49 -41 40 -37 -23 1 -30 -2 -51 -8 -51 -5 0 -10 7 -10 15 0
8 -5 15 -10 15 -7 0 -7 7 0 21 19 34 5 32 -39 -7 -43 -39 -67 -98 -56 -134 4
-13 -1 -23 -14 -32 -12 -7 -21 -22 -21 -33 -1 -18 -2 -17 -15 5 -7 14 -17 25
-22 25 -4 0 -7 3 -6 8 4 9 -34 47 -47 47 -5 0 -10 -9 -10 -20 0 -25 1 -25 -57
1 -74 34 -85 37 -130 42 -41 5 -42 4 -32 -20 12 -32 12 -76 -1 -68 -5 3 -10
19 -10 35 0 16 -6 35 -14 42 -7 8 -16 24 -20 36 -6 17 -4 21 8 16 9 -4 22 -1
30 5 15 13 35 13 143 5 66 -5 72 -4 78 15 7 24 13 25 50 11 31 -12 95 13 95
36 0 9 12 14 37 14 37 0 37 0 15 16 -28 20 -28 34 1 34 12 0 29 4 36 9 16 10
51 -3 51 -19z m5510 10 c-33 -26 -52 -25 -21 0 13 11 28 20 35 20 6 0 0 -9
-14 -20z m34 -8 c2 -4 -5 -9 -17 -9 -17 -2 -19 0 -7 7 18 12 18 12 24 2z
m-6097 -98 c-3 -3 -12 -4 -19 -1 -8 3 -5 6 6 6 11 1 17 -2 13 -5z m668 -93
c-5 -12 -10 -8 -21 18 -8 19 -12 42 -8 50 9 22 37 -46 29 -68z m-114 -38 c1
-10 3 -36 5 -58 6 -71 3 -150 -6 -159 -15 -15 -18 -5 -20 64 -4 112 0 170 10
170 6 0 11 -8 11 -17z m139 7 c0 -5 -4 -10 -10 -10 -5 0 -10 5 -10 10 0 6 5
10 10 10 6 0 10 -4 10 -10z m-10 -30 c15 0 20 -6 19 -27 0 -28 -1 -28 -11 -5
-13 26 -25 28 -31 5 -4 -14 -5 -12 -6 5 -1 24 -21 31 -21 7 0 -18 -12 -19 -28
-3 -8 8 -8 17 -1 30 10 18 12 18 34 4 14 -9 33 -16 45 -16z m-484 -15 c-16
-17 -66 -38 -73 -31 -3 2 -2 14 2 25 5 17 15 21 46 21 36 0 39 -2 25 -15z
m-126 -31 c0 -8 -4 -12 -10 -9 -5 3 -10 10 -10 16 0 5 5 9 10 9 6 0 10 -7 10
-16z m32 -74 c4 8 9 22 11 30 3 8 6 3 6 -11 1 -23 -14 -39 -35 -39 -2 0 -3 17
-3 38 l2 37 7 -35 c4 -22 9 -29 12 -20z m637 -100 c1 -22 0 -23 -15 -8 -18 18
-23 86 -8 109 9 14 21 -42 23 -101z m-679 -10 c0 -5 -4 -10 -9 -10 -6 0 -13 5
-16 10 -3 6 1 10 9 10 9 0 16 -4 16 -10z m3150 -50 l0 -40 -40 0 c-36 0 -40
-2 -40 -25 0 -25 -1 -25 -80 -25 l-80 0 0 50 0 50 40 0 c29 0 40 4 40 15 0 12
16 15 80 15 l80 0 0 -40z m-2814 -3 c3 -29 -14 -47 -25 -28 -6 9 -7 39 -2 59
1 2 6 2 12 0 7 -2 13 -16 15 -31z m-221 13 c8 -13 -15 -13 -35 0 -12 8 -11 10
7 10 12 0 25 -4 28 -10z m147 -17 c18 4 20 -20 3 -37 -22 -22 -30 -20 -43 10
-7 14 -17 22 -22 19 -6 -3 -15 -3 -21 1 -20 12 12 22 43 13 17 -4 35 -7 40 -6z
m2978 -48 c-7 -8 -19 -15 -26 -15 -8 0 -14 7 -14 15 0 10 10 15 26 15 22 0 25
-2 14 -15z m-62 -52 c-5 -25 -28 -28 -28 -4 0 12 6 21 16 21 9 0 14 -7 12 -17z
m-268 -23 c0 -5 -2 -10 -4 -10 -3 0 -8 5 -11 10 -3 6 -1 10 4 10 6 0 11 -4 11
-10z m80 -20 c0 -27 -2 -30 -20 -20 -11 6 -24 19 -30 30 -10 18 -7 20 20 20
27 0 30 -3 30 -30z m180 -4 c0 -8 3 -21 6 -30 4 -11 1 -16 -10 -16 -11 0 -16
9 -16 30 0 17 5 30 10 30 6 0 10 -6 10 -14z m-2915 -46 c13 -6 15 -9 5 -9 -8
0 -22 4 -30 9 -18 12 -2 12 25 0z m2735 -10 c0 -5 -2 -10 -4 -10 -3 0 -8 5
-11 10 -3 6 -1 10 4 10 6 0 11 -4 11 -10z m238 -24 c9 -6 11 -20 7 -47 l-7
-39 41 0 c35 0 41 3 41 21 0 19 1 19 33 -5 19 -15 39 -26 45 -26 7 0 12 -6 12
-12 0 -9 4 -8 10 2 9 13 10 13 10 0 0 -13 1 -13 10 0 9 13 10 13 10 0 0 -13 1
-13 10 0 9 13 12 13 21 -2 5 -10 19 -18 29 -18 13 0 20 -7 20 -19 0 -11 7 -26
15 -35 8 -8 15 -24 15 -35 0 -11 11 -32 25 -46 l26 -25 -26 0 c-18 0 -25 -5
-25 -20 0 -11 -7 -23 -15 -26 -8 -4 -15 -12 -15 -19 0 -7 7 -15 15 -19 20 -7
20 -72 0 -110 -20 -38 -19 -43 10 -50 14 -4 25 -10 25 -15 0 -5 7 -17 16 -25
12 -12 12 -16 2 -16 -8 0 -6 -4 5 -11 9 -5 21 -8 26 -5 11 7 21 -18 21 -55 0
-27 3 -29 38 -31 36 -1 36 -1 5 -5 -18 -2 -33 -8 -33 -12 0 -5 -22 -11 -50
-15 -40 -5 -50 -10 -50 -26 0 -12 -8 -20 -22 -22 -22 -3 -22 -3 -2 -22 19 -20
19 -20 22 2 2 14 10 22 23 22 16 0 19 -7 19 -40 0 -29 -4 -40 -15 -40 -10 0
-17 -14 -21 -40 -5 -28 -12 -40 -23 -40 -9 0 -22 -9 -29 -20 -10 -17 -23 -20
-77 -20 -54 0 -67 3 -77 20 -13 21 -38 27 -38 10 0 -5 -18 -10 -39 -10 -31 0
-41 4 -46 20 -3 11 -11 20 -17 20 -5 0 -8 -6 -5 -12 2 -7 0 -24 -5 -37 -8 -23
-9 -23 -28 -6 -11 10 -20 13 -20 7 0 -7 -16 -12 -40 -12 -33 0 -40 -3 -40 -20
0 -18 -7 -20 -55 -20 l-55 0 0 40 c0 37 -2 40 -27 41 -41 2 -57 -2 -65 -14
-10 -16 -28 11 -21 30 3 8 -6 17 -24 23 -28 10 -29 14 -31 73 -4 190 -4 181
17 198 29 23 28 53 -1 46 -26 -7 -58 8 -58 28 0 8 9 15 20 15 17 0 19 6 15 39
-3 35 1 43 31 69 26 23 36 41 44 81 11 58 24 87 42 93 6 2 11 20 10 41 -1 37
-1 37 37 37 23 0 41 -5 44 -12 3 -9 12 -6 29 10 13 12 30 22 36 22 7 0 12 5
12 10 0 6 13 10 29 10 24 0 29 5 35 31 8 40 1 49 -35 49 -25 0 -29 4 -29 28
l0 28 73 -1 c39 0 78 -4 85 -9z m4277 -6 c-94 -14 -200 -22 -193 -15 8 8 138
22 203 22 37 0 37 0 -10 -7z m-1505 -180 c-20 -13 -50 -13 -50 0 0 6 15 10 33
10 24 0 28 -3 17 -10z m-3333 -492 c-3 -8 -6 -5 -6 6 -1 11 2 17 5 13 3 -3 4
-12 1 -19z m94 -129 c1 -19 1 -47 0 -64 l-1 -29 -17 24 c-12 17 -13 25 -5 28
7 2 12 22 12 45 0 48 10 45 11 -4z m-441 -89 c0 -5 -4 -10 -10 -10 -5 0 -10 5
-10 10 0 6 5 10 10 10 6 0 10 -4 10 -10z m510 -50 c0 -5 -4 -10 -9 -10 -6 0
-13 5 -16 10 -3 6 1 10 9 10 9 0 16 -4 16 -10z m0 -60 c0 -5 -9 -10 -21 -10
-11 0 -17 5 -14 10 3 6 13 10 21 10 8 0 14 -4 14 -10z m218 -228 c2 -7 -6 -12
-17 -12 -21 0 -27 11 -14 24 9 9 26 2 31 -12z m2209 -73 c2 -8 -1 -21 -7 -29
-14 -22 -34 2 -25 30 7 23 28 22 32 -1z m533 -9 c0 -5 -5 -10 -11 -10 -5 0 -7
5 -4 10 3 6 8 10 11 10 2 0 4 -4 4 -10z m-553 -92 c-2 -13 -4 -5 -4 17 -1 22
1 32 4 23 2 -10 2 -28 0 -40z m243 6 c0 -11 -8 -14 -27 -12 -39 4 -42 28 -4
28 21 0 31 -5 31 -16z m-226 -95 c8 -51 1 -64 -24 -39 -16 16 -20 43 -11 94 3
22 29 -19 35 -55z m261 -54 c-7 -112 -21 -175 -37 -175 -7 0 -7 -5 1 -14 16
-19 -1 -83 -20 -77 -8 3 -34 6 -59 9 -25 2 -49 7 -53 11 -7 7 8 241 19 299 3
14 12 22 24 22 10 0 25 6 31 13 7 7 32 12 56 12 l45 0 -7 -100z m-216 -296
c28 -10 36 -20 32 -43 -1 -4 2 -13 7 -20 5 -6 12 -27 15 -48 4 -28 1 -40 -14
-54 -23 -20 -35 -13 -21 13 8 15 8 46 0 110 -1 7 -5 10 -9 7 -11 -7 -69 24
-69 36 0 13 20 13 59 -1z m131 -59 c0 -5 -4 -10 -10 -10 -5 0 -10 5 -10 10 0
6 5 10 10 10 6 0 10 -4 10 -10z m-280 -220 c8 -5 11 -10 6 -10 -5 0 -3 -7 4
-15 10 -12 9 -16 -3 -21 -23 -8 -37 4 -37 32 0 26 7 29 30 14z m79 -147 c12
10 14 9 8 -5 -4 -12 -2 -15 9 -11 7 3 14 1 14 -3 -1 -14 -30 -49 -30 -36 0 7
-7 12 -16 12 -8 0 -13 4 -9 9 3 5 1 12 -5 16 -5 3 -10 11 -10 18 0 8 3 8 12
-1 9 -9 15 -9 27 1z m181 -95 c0 -10 -7 -18 -15 -18 -10 0 -14 7 -11 23 3 12
5 27 5 32 2 16 21 -18 21 -37z m1493 -365 c-7 -2 -21 -2 -30 0 -10 3 -4 5 12
5 17 0 24 -2 18 -5z m1235 -20 c-21 -2 -55 -2 -75 0 -21 2 -4 4 37 4 41 0 58
-2 38 -4z m-911 -155 c-2 -13 -4 -3 -4 22 0 25 2 35 4 23 2 -13 2 -33 0 -45z
m823 52 c0 -5 -2 -10 -4 -10 -3 0 -8 5 -11 10 -3 6 -1 10 4 10 6 0 11 -4 11
-10z m-855 -80 c-3 -5 -15 -10 -26 -10 -10 0 -19 5 -19 10 0 6 12 10 26 10 14
0 23 -4 19 -10z m-3168 -382 c-3 -8 -6 -5 -6 6 -1 11 2 17 5 13 3 -3 4 -12 1
-19z m13 -87 c0 -45 -6 -37 -14 19 -4 31 -3 40 4 30 5 -8 10 -30 10 -49z
m-2206 -356 c-4 -8 -14 -15 -23 -15 -14 1 -13 3 3 15 25 19 27 19 20 0z m3333
-82 c-3 -10 -5 -4 -5 12 0 17 2 24 5 18 2 -7 2 -21 0 -30z m30 -15 c-3 -7 -5
-2 -5 12 0 14 2 19 5 13 2 -7 2 -19 0 -25z m-17 -131 c-5 -54 -14 -106 -20
-115 -8 -13 -10 -1 -5 48 6 65 26 173 31 167 2 -1 -1 -47 -6 -100z m-720 -236
c0 -10 14 -45 31 -77 17 -32 39 -76 50 -96 11 -21 44 -65 74 -99 31 -34 64
-81 74 -105 15 -33 29 -46 65 -62 34 -16 53 -33 77 -72 25 -40 42 -56 83 -74
57 -25 102 -66 56 -51 -81 27 -193 -24 -265 -120 -56 -75 -75 -130 -75 -218 0
-61 -2 -68 -15 -57 -8 7 -15 19 -15 27 0 8 -5 11 -11 8 -6 -4 -13 1 -15 12 -3
11 -30 30 -65 46 -32 15 -59 33 -59 40 0 14 -44 57 -58 57 -15 0 -82 65 -82
80 -1 21 -35 60 -54 60 -16 0 -61 54 -61 73 0 7 -15 16 -32 22 -18 5 -33 15
-33 21 0 14 -76 94 -90 94 -5 0 -12 10 -16 23 -4 12 -11 25 -17 28 -34 23 93
188 219 284 56 43 69 54 142 118 69 60 92 69 92 38z m-2580 -71 c8 -5 11 -10
5 -10 -5 0 -17 5 -25 10 -8 5 -10 10 -5 10 6 0 17 -5 25 -10z m-130 -1701 c0
-6 -4 -7 -10 -4 -5 3 -10 11 -10 16 0 6 5 7 10 4 6 -3 10 -11 10 -16z m119
-125 c125 -86 135 -94 116 -94 -26 0 -124 57 -132 75 -3 8 -11 15 -18 15 -16
0 -75 78 -75 99 0 8 16 -5 36 -28 21 -23 53 -54 73 -67z m-1824 36 c-28 -12
-57 -12 -50 0 3 6 21 10 38 9 27 0 29 -2 12 -9z m-290 -119 c-27 -10 -59 -22
-70 -26 -32 -13 -11 4 31 25 21 10 50 19 64 19 17 0 10 -5 -25 -18z m-105 -39
c0 -11 -48 -37 -56 -30 -3 4 4 9 15 13 12 3 21 11 21 16 0 5 5 9 10 9 6 0 10
-4 10 -8z m2330 -108 c0 -8 -9 -14 -20 -14 -22 0 -28 26 -7 33 16 6 27 -1 27
-19z m-1339 -387 c-11 -12 -24 -18 -27 -14 -10 10 27 48 38 41 6 -4 1 -16 -11
-27z m-336 -63 c-15 -14 -29 -23 -31 -21 -9 8 9 37 22 37 8 0 14 8 14 18 0 28
14 37 18 12 2 -13 -6 -31 -23 -46z m-598 -56 c-3 -7 -5 -2 -5 12 0 14 2 19 5
13 2 -7 2 -19 0 -25z m4650 -335 c-3 -10 -5 -2 -5 17 0 19 2 27 5 18 2 -10 2
-26 0 -35z m138 -123 c3 -5 1 -10 -4 -10 -6 0 -11 5 -11 10 0 6 2 10 4 10 3 0
8 -4 11 -10z m50 0 c3 -5 1 -10 -4 -10 -6 0 -11 5 -11 10 0 6 2 10 4 10 3 0 8
-4 11 -10z m-4601 -255 c6 -17 -15 -20 -31 -4 -8 8 -17 8 -30 0 -15 -8 -20 -7
-20 5 0 20 73 19 81 -1z m381 -65 c7 -12 -12 -12 -40 0 -18 8 -17 9 7 9 15 1
30 -3 33 -9z m1465 -80 c0 -5 -4 -10 -10 -10 -5 0 -10 5 -10 10 0 6 5 10 10
10 6 0 10 -4 10 -10z m-2440 -40 c0 -5 -4 -10 -10 -10 -5 0 -10 5 -10 10 0 6
5 10 10 10 6 0 10 -4 10 -10z m1510 -15 c0 -8 -2 -15 -4 -15 -2 0 -6 7 -10 15
-3 8 -1 15 4 15 6 0 10 -7 10 -15z m268 -56 c-2 -6 -8 -10 -13 -10 -5 0 -11 4
-13 10 -2 6 4 11 13 11 9 0 15 -5 13 -11z m-1943 -9 c3 -5 1 -10 -4 -10 -6 0
-11 5 -11 10 0 6 2 10 4 10 3 0 8 -4 11 -10z m2195 -20 c12 -8 9 -10 -12 -10
-16 0 -28 5 -28 10 0 13 20 13 40 0z m-1083 -6 c-3 -3 -12 -4 -19 -1 -8 3 -5
6 6 6 11 1 17 -2 13 -5z m823 -14 c0 -5 -9 -10 -20 -10 -11 0 -20 5 -20 10 0
6 9 10 20 10 11 0 20 -4 20 -10z m70 6 c0 -3 -4 -8 -10 -11 -5 -3 -10 -1 -10
4 0 6 5 11 10 11 6 0 10 -2 10 -4z m-1605 -16 c-3 -5 -12 -7 -20 -3 -21 7 -19
13 6 13 11 0 18 -4 14 -10z m1435 -6 c0 -2 -7 -4 -15 -4 -8 0 -15 4 -15 10 0
5 7 7 15 4 8 -4 15 -8 15 -10z m-1550 -4 c0 -5 -5 -10 -11 -10 -5 0 -7 5 -4
10 3 6 8 10 11 10 2 0 4 -4 4 -10z m1870 -5 c-14 -16 -40 -20 -40 -6 0 10 17
19 39 20 11 1 11 -2 1 -14z m-781 -14 c9 -6 10 -11 2 -15 -14 -9 -51 2 -51 15
0 11 30 12 49 0z m3264 -18 c-7 -2 -19 -2 -25 0 -7 3 -2 5 12 5 14 0 19 -2 13
-5z m-2288 -23 c3 -5 -1 -10 -9 -10 -9 0 -16 5 -16 10 0 6 4 10 9 10 6 0 13
-4 16 -10z m-165 -10 c0 -5 -4 -10 -10 -10 -5 0 -10 5 -10 10 0 6 5 10 10 10
6 0 10 -4 10 -10z m220 0 c0 -5 12 -10 27 -10 19 0 24 -3 16 -11 -16 -16 -67
-7 -71 14 -2 10 3 17 12 17 9 0 16 -4 16 -10z m-1230 -10 c0 -5 -2 -10 -4 -10
-3 0 -8 5 -11 10 -3 6 -1 10 4 10 6 0 11 -4 11 -10z m163 3 c-7 -2 -19 -2 -25
0 -7 3 -2 5 12 5 14 0 19 -2 13 -5z m134 1 c-3 -3 -12 -4 -19 -1 -8 3 -5 6 6
6 11 1 17 -2 13 -5z m123 -10 c0 -2 -9 -4 -21 -4 -11 0 -18 4 -14 10 5 8 35 3
35 -6z m1017 -16 c-3 -7 -5 -2 -5 12 0 14 2 19 5 13 2 -7 2 -19 0 -25z m-1451
-9 c10 -8 42 -2 89 17 17 7 18 5 8 -8 -7 -8 -10 -18 -6 -21 3 -4 -1 -7 -10 -7
-9 0 -17 -5 -17 -11 0 -6 -9 -8 -20 -4 -11 4 -20 2 -20 -4 0 -6 -9 -11 -21
-11 -15 0 -19 5 -15 16 4 11 -3 18 -25 26 -21 7 -27 13 -18 18 12 8 35 3 55
-11z m231 -1 c-3 -8 -6 -5 -6 6 -1 11 2 17 5 13 3 -3 4 -12 1 -19z m881 9 c20
-13 14 -27 -14 -27 -21 0 -54 19 -54 32 0 6 56 2 68 -5z m208 -26 c-10 -16
-46 -20 -46 -5 0 8 10 14 26 14 14 0 23 -4 20 -9z m-346 -11 c0 -5 -4 -10 -10
-10 -5 0 -10 5 -10 10 0 6 5 10 10 10 6 0 10 -4 10 -10z m430 0 c0 -5 -6 -10
-14 -10 -8 0 -18 5 -21 10 -3 6 3 10 14 10 12 0 21 -4 21 -10z m-1226 -25 c-4
-8 -8 -15 -10 -15 -2 0 -4 7 -4 15 0 8 4 15 10 15 5 0 7 -7 4 -15z m392 -10
c-3 -8 0 -15 6 -15 9 0 9 -3 0 -12 -10 -10 -15 -10 -21 1 -11 16 -3 41 11 41
6 0 8 -7 4 -15z m364 5 c0 -5 -7 -10 -15 -10 -8 0 -15 5 -15 10 0 6 7 10 15
10 8 0 15 -4 15 -10z m230 0 c0 -5 -8 -10 -17 -10 -15 0 -16 2 -3 10 19 12 20
12 20 0z m120 0 c0 -5 -10 -10 -22 -9 -22 0 -22 1 -3 9 11 5 21 9 23 9 1 1 2
-3 2 -9z m-418 -24 c-2 -10 4 -16 15 -16 17 -1 17 -2 -1 -15 -28 -21 -31 -19
-34 21 -1 25 2 34 10 31 7 -2 12 -11 10 -21z m178 4 c-19 -12 -30 -12 -30 -1
0 10 31 20 40 14 2 -2 -2 -8 -10 -13z m430 10 c0 -5 -11 -9 -24 -8 -14 1 -22
6 -20 10 7 12 44 10 44 -2z m-1360 -9 c0 -9 -41 -23 -49 -16 -3 4 28 20 47 24
1 1 2 -3 2 -8z m1110 -27 c0 -11 -5 -14 -16 -10 -9 3 -20 6 -25 6 -5 0 -9 5
-9 10 0 6 11 10 25 10 16 0 25 -6 25 -16z m250 2 c0 -8 -9 -14 -19 -13 -15 1
-17 4 -9 14 14 17 28 16 28 -1z m-1060 -27 c0 -6 -4 -7 -10 -4 -5 3 -10 11
-10 16 0 6 5 7 10 4 6 -3 10 -11 10 -16z m570 7 c0 -3 -4 -8 -10 -11 -5 -3
-10 -1 -10 4 0 6 5 11 10 11 6 0 10 -2 10 -4z m360 -21 c0 -22 -3 -24 -37 -21
-44 4 -43 16 1 32 17 7 32 12 34 13 1 0 2 -10 2 -24z m-445 -4 c3 -5 1 -12 -5
-16 -5 -3 -10 1 -10 9 0 18 6 21 15 7z m-788 -49 c-8 -9 -13 -22 -11 -27 2 -6
-9 -16 -25 -23 -26 -11 -34 -10 -67 7 -30 16 -49 19 -103 15 -49 -4 -62 -3
-51 5 8 6 26 9 40 6 14 -3 37 1 52 9 15 8 57 17 93 21 36 4 68 12 72 18 5 8 8
7 11 -2 2 -6 -3 -20 -11 -29z m913 -4 c0 -4 -8 -8 -18 -8 -17 0 -21 15 -13 50
2 7 31 -32 31 -42z m-725 2 c-10 -11 -25 -20 -33 -20 -9 0 -27 -10 -40 -22
-14 -13 -22 -17 -18 -8 3 8 9 23 12 33 6 15 47 34 83 36 11 1 10 -4 -4 -19z
m390 -29 c7 -12 -12 -24 -25 -16 -11 7 -4 25 10 25 5 0 11 -4 15 -9z m470 -1
c-3 -5 -13 -10 -21 -10 -8 0 -12 5 -9 10 3 6 13 10 21 10 8 0 12 -4 9 -10z
m226 -23 c-16 -16 -26 0 -10 19 9 11 15 12 17 4 2 -6 -1 -17 -7 -23z m-306 13
c3 -5 -1 -10 -10 -10 -9 0 -13 5 -10 10 3 6 8 10 10 10 2 0 7 -4 10 -10z
m-1558 -26 c-3 -3 -12 -4 -19 -1 -8 3 -5 6 6 6 11 1 17 -2 13 -5z m753 -4 c0
-5 -5 -10 -11 -10 -5 0 -7 5 -4 10 3 6 8 10 11 10 2 0 4 -4 4 -10z m1045 -20
c3 -5 -3 -10 -14 -10 -12 0 -21 5 -21 10 0 6 6 10 14 10 8 0 18 -4 21 -10z
m-1348 -11 c9 -9 9 -17 0 -31 -10 -16 -8 -22 10 -38 l22 -18 -24 -5 c-26 -4
-29 0 -37 58 -4 24 -51 33 -74 14 -8 -6 -17 -9 -21 -5 -4 3 2 13 13 21 23 17
95 20 111 4z m1388 1 c3 -5 2 -10 -4 -10 -5 0 -13 5 -16 10 -3 6 -2 10 4 10 5
0 13 -4 16 -10z m-1655 -10 c0 -5 -4 -10 -10 -10 -5 0 -10 5 -10 10 0 6 5 10
10 10 6 0 10 -4 10 -10z m650 0 c0 -5 -4 -10 -10 -10 -5 0 -10 5 -10 10 0 6 5
10 10 10 6 0 10 -4 10 -10z m-750 -45 c0 -18 -4 -18 -50 0 l-35 13 43 1 c31 1
42 -3 42 -14z m4470 1 c0 -11 -19 -15 -25 -6 -3 5 1 10 9 10 9 0 16 -2 16 -4z
m-5510 -25 c0 -11 3 -26 6 -35 10 -26 -12 -18 -31 10 -14 22 -15 28 -4 35 21
13 29 11 29 -10z m80 -6 c0 -16 -9 -19 -35 -9 -13 5 -14 8 -3 15 20 13 38 11
38 -6z m1548 9 c32 -9 27 -24 -7 -24 -30 0 -46 12 -34 24 8 7 12 7 41 0z m127
-14 c3 -5 -1 -10 -9 -10 -8 0 -18 5 -21 10 -3 6 1 10 9 10 8 0 18 -4 21 -10z
m565 0 c0 -5 -9 -10 -21 -10 -11 0 -17 5 -14 10 3 6 13 10 21 10 8 0 14 -4 14
-10z m-1420 -16 c0 -8 -32 -33 -43 -34 -4 0 -3 9 3 20 10 18 40 29 40 14z
m955 -5 c-4 -5 -15 -9 -26 -9 -26 0 -17 15 10 17 12 1 19 -2 16 -8z m3153 -7
c10 -7 8 -15 -10 -38 -12 -16 -22 -30 -23 -31 -4 -9 -45 12 -45 23 0 8 -9 14
-19 14 -29 0 -35 -17 -9 -24 16 -4 20 -8 12 -16 -14 -14 -44 -2 -44 17 0 12
-8 14 -36 8 -46 -8 -43 12 7 37 36 19 143 25 167 10z m277 -11 c33 -4 53 -10
45 -13 -48 -20 -84 -27 -94 -20 -17 13 -46 22 -44 14 3 -15 -15 -42 -27 -42
-7 0 -18 6 -24 14 -10 11 -8 17 6 25 17 9 16 11 -7 20 -21 8 -16 10 30 9 30 0
82 -3 115 -7z m-3522 -19 c-18 -18 -33 -19 -33 -2 0 7 17 15 43 19 4 0 -1 -7
-10 -17z m-388 -2 c-3 -5 -10 -10 -16 -10 -5 0 -9 5 -9 10 0 6 7 10 16 10 8 0
12 -4 9 -10z m4005 1 c0 -6 -4 -13 -10 -16 -5 -3 -10 1 -10 9 0 9 5 16 10 16
6 0 10 -4 10 -9z m-4086 -21 c10 -10 -87 -23 -129 -18 l-30 3 30 17 c30 16
110 15 129 -2z m4261 10 c3 -5 2 -10 -4 -10 -5 0 -13 5 -16 10 -3 6 -2 10 4
10 5 0 13 -4 16 -10z m-4015 -10 c0 -5 -6 -10 -14 -10 -8 0 -18 5 -21 10 -3 6
3 10 14 10 12 0 21 -4 21 -10z m90 -5 c-12 -15 -30 -12 -30 6 0 5 10 9 21 9
18 0 19 -2 9 -15z m225 5 c4 -6 -7 -10 -27 -10 -25 0 -29 3 -18 10 19 13 37
13 45 0z m3917 -15 c0 -5 -5 -11 -11 -13 -6 -2 -11 4 -11 13 0 9 5 15 11 13 6
-2 11 -8 11 -13z m-5052 1 c0 -2 -7 -6 -15 -10 -8 -3 -15 -1 -15 4 0 6 7 10
15 10 8 0 15 -2 15 -4z"/>
<path d="M3560 10871 c0 -20 13 -41 21 -35 15 9 10 44 -6 44 -8 0 -15 -4 -15
-9z"/>
<path d="M4578 8393 c12 -2 30 -2 40 0 9 3 -1 5 -23 4 -22 0 -30 -2 -17 -4z"/>
<path d="M4130 7903 c0 -15 2 -15 9 -4 7 11 10 10 14 -5 4 -16 5 -16 6 4 1 13
-5 22 -14 22 -8 0 -15 -8 -15 -17z"/>
<path d="M4746 7873 c-11 -3 -26 -11 -34 -19 -11 -12 -6 -14 37 -14 44 0 51 3
51 20 0 20 -13 23 -54 13z"/>
<path d="M4000 7824 c0 -14 3 -14 15 -4 8 7 15 14 15 16 0 2 -7 4 -15 4 -8 0
-15 -7 -15 -16z"/>
<path d="M4646 7703 c-11 -11 -6 -23 9 -23 8 0 15 4 15 9 0 13 -16 22 -24 14z"/>
<path d="M4321 7664 c0 -11 3 -14 6 -6 3 7 2 16 -1 19 -3 4 -6 -2 -5 -13z"/>
<path d="M4419 7620 l-24 -19 33 -1 c21 0 32 5 32 14 0 25 -17 27 -41 6z"/>
<path d="M6530 6783 c1 -26 24 -53 47 -53 11 0 30 11 43 25 l23 25 -41 0 c-22
0 -44 5 -47 10 -10 16 -25 12 -25 -7z"/>
<path d="M5310 3929 c0 -16 49 -81 82 -107 42 -35 34 -13 -17 47 -25 29 -45
57 -45 62 0 5 -4 9 -10 9 -5 0 -10 -5 -10 -11z"/>
<path d="M5026 74 c-4 -9 1 -13 14 -11 28 5 34 14 11 20 -11 3 -22 -1 -25 -9z"/>
<path d="M9870 11028 c19 -6 66 -21 103 -34 38 -13 77 -24 88 -24 23 0 27 -38
4 -46 -8 -4 -15 -18 -15 -34 0 -15 7 -33 15 -40 12 -10 15 -9 15 5 0 12 6 9
25 -13 31 -37 31 -42 -1 -42 -40 0 -23 -25 19 -28 36 -3 45 -17 38 -56 -1 -5
10 -21 25 -37 15 -16 23 -32 19 -40 -5 -7 7 -24 31 -45 28 -24 34 -33 22 -34
-24 0 -23 -23 2 -45 17 -16 20 -31 20 -107 0 -75 3 -91 20 -108 11 -11 20 -33
20 -49 0 -18 11 -41 28 -59 107 -117 98 -111 153 -114 42 -2 53 -7 55 -21 1
-11 4 -20 6 -20 30 -15 42 -27 43 -44 1 -11 11 -32 23 -47 l21 -27 3 28 c2 15
8 -8 12 -52 5 -44 12 -89 17 -100 4 -11 8 265 8 613 l1 632 -427 -1 c-303 -1
-418 -4 -393 -11z m777 -1020 c-3 -8 -6 -5 -6 6 -1 11 2 17 5 13 3 -3 4 -12 1
-19z"/>
<path d="M8080 10939 c0 -5 5 -7 10 -4 6 3 10 8 10 11 0 2 -4 4 -10 4 -5 0
-10 -5 -10 -11z"/>
<path d="M9312 10920 c-77 -28 -130 -61 -189 -120 -99 -98 -139 -201 -130
-333 14 -205 192 -369 436 -400 253 -32 446 104 483 338 25 158 -51 350 -172
435 -19 13 -37 27 -40 31 -6 8 -84 43 -129 58 -55 18 -198 13 -259 -9z m138
-9 c0 -4 -24 -11 -53 -14 -67 -7 -169 -53 -226 -103 -99 -86 -154 -224 -134
-340 27 -158 128 -262 314 -324 75 -26 214 -27 285 -4 98 33 172 105 219 214
21 47 27 170 13 240 -7 30 -6 32 5 15 7 -13 12 -59 12 -125 0 -99 -2 -110 -32
-171 -39 -79 -102 -140 -181 -177 -103 -48 -276 -42 -397 14 -128 58 -216 152
-249 264 -62 208 64 418 304 506 40 15 120 18 120 5z m131 -10 c69 -24 147
-71 185 -113 42 -47 82 -112 90 -145 4 -17 -5 -7 -23 28 -48 89 -80 123 -163
172 -56 34 -127 57 -174 57 -14 0 -26 5 -26 10 0 16 52 12 111 -9z m-14 -31
c81 -19 199 -117 240 -200 36 -71 56 -164 48 -223 -9 -75 -33 -143 -62 -177
-49 -59 -60 -26 -13 39 38 52 54 126 46 212 -8 84 -32 141 -86 202 -47 54
-115 101 -130 92 -6 -4 -10 -2 -10 3 0 9 -43 32 -60 32 -6 0 -10 -4 -10 -10 0
-5 7 -10 15 -10 28 0 118 -55 162 -99 110 -110 135 -320 51 -424 l-23 -27 -49
122 c-52 133 -89 221 -142 337 -19 40 -34 80 -34 88 0 8 -7 21 -15 30 -20 19
-9 36 18 27 12 -4 36 -10 54 -14z m-133 -4 c-3 -8 -25 -17 -49 -20 -100 -16
-211 -99 -261 -198 -33 -66 -41 -156 -20 -229 17 -58 78 -149 85 -128 2 7 -3
17 -10 23 -24 18 -54 77 -68 130 -41 163 92 351 277 391 l32 7 -34 -94 c-19
-51 -64 -167 -100 -257 -36 -91 -66 -170 -66 -177 0 -6 -7 -17 -15 -24 -8 -7
-15 -21 -15 -31 0 -11 -3 -19 -7 -19 -17 0 -79 81 -106 138 -27 59 -29 70 -24
140 6 89 22 130 72 197 53 68 81 92 160 131 74 36 160 48 149 20z m53 -370 c4
-8 31 -38 58 -68 99 -105 155 -170 155 -179 0 -5 -24 -21 -52 -36 -46 -24 -64
-28 -133 -27 -89 1 -165 16 -221 45 -20 10 -42 16 -47 12 -14 -8 81 -52 114
-53 14 0 30 -5 36 -11 6 -6 52 -12 105 -13 87 -1 97 1 156 32 34 17 65 32 67
32 13 0 3 -32 -12 -37 -10 -4 -24 -12 -31 -19 -21 -21 -117 -44 -182 -44 -73
0 -165 22 -231 56 -59 29 -65 38 -42 62 42 44 209 226 223 243 18 23 26 24 37
5z"/>
<path d="M9411 10290 c-20 -41 -16 -56 9 -40 10 6 20 4 32 -6 21 -20 41 -10
28 14 -6 9 -14 29 -20 45 -13 37 -26 34 -49 -13z m26 -12 c-3 -8 -6 -5 -6 6
-1 11 2 17 5 13 3 -3 4 -12 1 -19z"/>
<path d="M9490 10315 c-16 -19 3 -45 32 -45 10 0 17 -4 13 -10 -3 -5 -13 -6
-22 -3 -11 4 -14 2 -11 -8 3 -8 16 -14 29 -14 21 0 24 5 25 40 1 22 -4 43 -10
47 -18 12 -43 9 -56 -7z m50 -15 c0 -5 -4 -10 -10 -10 -5 0 -10 5 -10 10 0 6
5 10 10 10 6 0 10 -4 10 -10z"/>
<path d="M9310 10301 c-15 -29 -12 -49 9 -61 28 -14 61 -12 61 4 0 9 -8 12
-25 8 -22 -4 -25 -1 -25 23 0 24 3 26 25 21 18 -5 25 -2 25 9 0 23 -57 20 -70
-4z"/>
<path d="M9577 10293 c-8 -18 -8 -29 1 -43 9 -14 8 -20 -1 -23 -6 -2 -2 -6 9
-9 24 -6 64 7 64 22 0 6 -10 10 -22 8 -17 -2 -24 3 -26 20 -3 20 0 22 22 16
21 -5 25 -3 20 10 -3 9 -9 16 -13 17 -3 0 -14 2 -24 4 -12 2 -22 -6 -30 -22z"/>
<path d="M7282 10680 c0 -14 2 -19 5 -12 2 6 2 18 0 25 -3 6 -5 1 -5 -13z"/>
<path d="M7260 10626 c0 -9 7 -16 16 -16 9 0 14 5 12 12 -6 18 -28 21 -28 4z"/>
<path d="M7280 10096 c0 -9 7 -16 16 -16 9 0 14 5 12 12 -6 18 -28 21 -28 4z"/>
<path d="M8468 9703 c7 -3 16 -2 19 1 4 3 -2 6 -13 5 -11 0 -14 -3 -6 -6z"/>
<path d="M8375 9689 c-15 -6 -11 -8 18 -8 20 -1 37 1 37 3 0 9 -37 12 -55 5z"/>
<path d="M9115 9490 c-288 -9 -422 -19 -433 -34 -5 -6 -12 -132 -16 -281 -4
-148 -9 -292 -13 -319 l-6 -49 69 8 c38 4 192 8 341 9 202 1 276 5 285 14 9 9
16 101 26 305 17 369 17 359 -11 355 -7 -1 -115 -4 -242 -8z m139 -99 c5 -8
-11 -471 -16 -476 -2 -2 -106 -4 -233 -6 l-230 -4 4 175 c2 96 6 204 10 240
l6 65 55 6 c89 9 398 10 404 0z"/>
<path d="M8885 9351 l-70 -6 0 -40 0 -40 68 2 67 3 0 -35 0 -35 -70 0 -70 0 0
-40 0 -40 69 0 69 0 -3 -42 c-2 -24 -4 -46 -4 -50 -1 -5 -32 -8 -71 -8 l-70 0
0 -43 0 -43 197 4 c144 3 200 8 210 17 8 8 13 38 13 75 l0 61 -47 -3 c-44 -3
-48 -5 -51 -30 -3 -25 -8 -28 -39 -28 l-36 0 7 42 c4 22 9 45 12 50 3 5 38 8
77 7 l72 -2 3 41 3 42 -80 0 -81 0 0 30 0 29 83 3 82 3 3 43 3 42 -138 -2
c-76 -1 -169 -4 -208 -7z"/>
<path d="M9695 9471 c3 -6 -12 -11 -32 -13 l-38 -3 3 -136 c3 -92 0 -139 -7
-143 -16 -11 -13 -82 4 -96 18 -15 22 -169 4 -187 -6 -6 -9 -27 -7 -48 3 -33
7 -39 29 -42 15 -2 36 4 49 15 21 17 22 25 21 140 l-2 123 38 -5 c21 -2 53 -5
71 -5 l33 -1 -3 -97 -3 -97 -35 -1 c-31 0 -35 -3 -38 -28 -5 -44 13 -57 78
-57 42 0 59 4 64 15 8 21 28 19 24 -2 -2 -14 5 -19 30 -21 64 -6 65 -1 61 228
-4 200 -4 205 16 202 69 -9 65 -2 66 -120 1 -59 4 -153 8 -209 6 -110 14 -126
64 -138 25 -7 27 -5 27 21 0 16 -7 38 -15 48 -11 14 -15 46 -15 105 0 47 -3
143 -7 213 -6 125 -6 127 -32 136 -30 11 -170 42 -188 42 -10 0 -11 -51 -6
-225 5 -168 3 -225 -5 -225 -7 0 -13 20 -14 53 -1 28 -3 72 -3 97 -1 25 -5
130 -9 235 -4 104 -8 190 -9 191 -1 2 -29 4 -61 6 -46 2 -60 7 -64 21 -3 13
-15 17 -54 17 -28 0 -47 -4 -43 -9z m105 -113 l50 0 0 -99 c0 -111 6 -105 -84
-93 l-46 7 0 92 c0 90 4 110 21 99 5 -3 31 -5 59 -6z"/>
<path d="M9740 9282 c0 -52 3 -63 22 -76 12 -9 33 -16 45 -16 21 0 23 5 23 45
0 25 -4 45 -10 45 -5 0 -10 11 -10 25 0 18 -5 25 -19 25 -11 0 -26 3 -35 6
-14 5 -16 -3 -16 -54z"/>
<path d="M10025 9430 c-4 -7 -22 -9 -46 -6 l-39 5 0 -42 0 -43 103 -17 c56
-10 115 -21 130 -24 28 -5 28 -5 25 33 -3 37 -5 40 -48 50 -28 7 -46 17 -48
27 -2 10 -9 17 -15 17 -7 0 -22 3 -33 6 -12 3 -25 1 -29 -6z"/>
<path d="M8075 9387 c-28 -9 -41 -19 -45 -36 -5 -22 -18 -27 -115 -50 -61 -14
-115 -29 -121 -33 -6 -4 -14 -59 -18 -130 -4 -68 -12 -183 -17 -256 -6 -73 -9
-136 -6 -139 3 -3 56 7 117 21 133 31 130 31 130 5 0 -18 4 -20 48 -13 53 7
59 11 64 39 3 17 16 22 93 33 126 19 130 20 156 40 22 18 23 29 35 228 7 115
15 228 17 252 5 49 9 49 -114 28 -143 -25 -154 -25 -151 2 4 25 -11 27 -73 9z
m221 -149 c-3 -24 -8 -94 -11 -157 -6 -106 -19 -171 -30 -159 -3 3 -34 -1 -70
-7 -35 -7 -66 -11 -67 -9 -4 4 11 282 17 320 5 30 9 32 63 42 104 18 103 18
98 -30z m-273 -70 c-9 -139 -22 -280 -26 -285 -10 -9 -132 -31 -138 -25 -6 8
16 331 24 338 8 8 98 32 123 33 19 1 20 -4 17 -61z"/>
<path d="M7318 9373 c7 -3 16 -2 19 1 4 3 -2 6 -13 5 -11 0 -14 -3 -6 -6z"/>
<path d="M7258 9346 c-24 -18 -23 -25 2 -19 11 3 20 12 20 19 0 17 0 17 -22 0z"/>
<path d="M10366 9312 c-2 -4 -1 -23 1 -42 4 -34 8 -37 68 -59 35 -12 68 -28
73 -34 5 -7 12 -42 14 -79 5 -79 0 -81 -77 -48 -62 26 -65 26 -65 -14 0 -41 9
-49 83 -72 31 -10 57 -22 57 -28 0 -6 -17 -52 -37 -103 -32 -82 -39 -93 -61
-93 -23 0 -24 -2 -17 -37 8 -47 7 -45 52 -47 l37 -1 36 82 c19 45 38 85 42 88
4 4 25 -50 47 -119 22 -70 48 -137 57 -149 15 -21 15 -20 12 23 -3 25 -24 105
-48 177 -24 73 -41 135 -38 139 4 3 23 -6 42 -21 l36 -27 0 31 c0 32 -12 48
-68 92 -30 23 -33 31 -39 97 -3 40 -3 72 2 72 9 0 69 -42 73 -52 2 -4 10 -8
18 -8 9 0 14 11 14 35 0 27 -6 38 -27 52 -16 9 -37 24 -48 34 -47 40 -230 126
-239 111z"/>
<path d="M9740 8997 c0 -61 16 -83 65 -89 28 -3 30 -1 29 32 -1 19 -6 51 -11
70 -8 31 -13 35 -46 38 l-37 3 0 -54z"/>
<path d="M10440 7951 c0 -26 4 -29 43 -34 46 -7 154 -39 187 -57 18 -10 20 -8
20 19 0 27 -5 31 -72 55 -78 27 -145 46 -165 46 -8 0 -13 -12 -13 -29z"/>
<path d="M10365 7915 c-11 -54 3 -629 15 -633 13 -5 13 -32 0 -32 -6 0 -10
-35 -10 -86 0 -50 4 -83 9 -79 5 3 11 -7 14 -22 2 -16 4 40 4 122 1 83 -3 158
-9 169 -7 13 -7 16 1 12 8 -5 11 34 10 136 0 105 -3 135 -10 113 -5 -16 -7
-64 -5 -105 l5 -75 -10 60 c-7 43 -6 84 3 145 14 93 14 253 -1 291 -8 22 -9
22 -16 -16z m22 -147 c-3 -8 -6 -5 -6 6 -1 11 2 17 5 13 3 -3 4 -12 1 -19z m0
-630 c-2 -13 -4 -3 -4 22 0 25 2 35 4 23 2 -13 2 -33 0 -45z"/>
<path d="M9606 7505 c-21 -22 -20 -51 3 -76 17 -18 22 -19 42 -7 47 26 64 62
25 52 -20 -5 -25 -2 -28 17 -4 29 -21 34 -42 14z"/>
<path d="M7395 7420 c-108 -16 -192 -32 -236 -46 -9 -2 -22 -17 -30 -32 -8
-15 -29 -53 -46 -85 -22 -40 -33 -73 -33 -100 0 -23 -5 -71 -11 -107 -11 -68
-14 -98 -23 -220 -4 -41 -11 -120 -16 -175 -10 -97 -9 -102 16 -155 49 -105
47 -102 69 -95 11 4 94 13 185 21 184 15 167 8 245 108 17 21 37 46 46 57 11
13 21 79 38 251 12 128 27 280 33 338 l11 105 -48 78 c-29 49 -53 77 -63 76
-10 -1 -71 -9 -137 -19z"/>
<path d="M9459 7398 c-7 -29 -5 -46 8 -61 10 -11 13 -21 7 -27 -14 -14 -51 -1
-57 21 -9 33 -36 10 -52 -44 -14 -46 -13 -52 2 -69 9 -10 29 -18 45 -18 l28 0
-1 -121 c-1 -66 3 -125 7 -129 5 -5 29 -10 54 -12 46 -3 48 -6 35 -45 -5 -18
-3 -22 8 -17 10 3 18 -5 25 -24 5 -16 16 -29 23 -30 8 0 31 -4 51 -8 32 -5 39
-3 44 12 4 11 14 27 22 37 14 16 12 17 -20 17 -35 0 -36 1 -40 43 -3 23 -1 49
3 57 7 13 9 13 10 0 1 -8 1 -22 0 -31 -1 -12 11 -18 50 -23 52 -7 68 -1 73 25
1 8 7 24 14 36 16 29 17 28 -20 28 -18 0 -75 4 -126 9 l-93 8 2 182 3 181 -52
3 c-29 2 -52 2 -53 0z m4 -115 c-7 -2 -19 -2 -25 0 -7 3 -2 5 12 5 14 0 19 -2
13 -5z m177 -388 c0 -8 -4 -15 -10 -15 -5 0 -10 7 -10 15 0 8 5 15 10 15 6 0
10 -7 10 -15z"/>
<path d="M10598 7343 c-61 -66 -89 -274 -53 -390 40 -126 50 -150 73 -183 29
-39 41 -50 60 -50 9 0 12 24 12 85 0 83 0 85 -24 85 -29 0 -37 27 -32 108 5
63 12 74 25 39 25 -65 31 -36 31 147 l0 186 -33 0 c-23 0 -41 -8 -59 -27z"/>
<path d="M7050 7259 c0 -5 5 -7 10 -4 6 3 10 8 10 11 0 2 -4 4 -10 4 -5 0 -10
-5 -10 -11z"/>
<path d="M7003 7160 c0 -25 2 -35 4 -22 2 12 2 32 0 45 -2 12 -4 2 -4 -23z"/>
<path d="M9831 7079 c-20 -8 -22 -11 -10 -27 33 -44 58 -52 83 -26 20 20 20
34 1 34 -18 0 -20 17 -2 23 6 2 -1 4 -18 4 -16 1 -41 -3 -54 -8z"/>
<path d="M6977 7019 c4 -16 8 -17 14 -7 13 19 11 28 -5 28 -9 0 -12 -7 -9 -21z"/>
<path d="M10384 6855 c1 -60 2 -98 4 -82 2 15 8 27 13 27 7 0 8 13 3 33 -4 17
-10 55 -14 82 -4 36 -6 19 -6 -60z"/>
<path d="M10398 6740 c-4 -30 -7 -77 -7 -105 l1 -50 10 55 c5 30 7 78 6 105
l-3 50 -7 -55z"/>
<path d="M6969 6728 c-1 -18 -3 -25 -6 -15 -8 30 -23 8 -23 -34 0 -27 4 -39
14 -39 8 0 16 -10 18 -22 2 -13 4 14 5 60 1 45 0 82 -3 82 -2 0 -5 -15 -5 -32z"/>
<path d="M6960 6559 c0 -13 5 -31 10 -39 7 -11 8 -5 4 20 -8 43 -14 51 -14 19z"/>
<path d="M10403 6520 c0 -25 2 -35 4 -22 2 12 2 32 0 45 -2 12 -4 2 -4 -23z"/>
<path d="M10407 6266 c-4 -10 -5 -21 -2 -24 9 -9 17 6 13 25 -3 17 -4 17 -11
-1z"/>
<path d="M10413 6090 c0 -25 2 -35 4 -22 2 12 2 32 0 45 -2 12 -4 2 -4 -23z"/>
<path d="M3874 6009 c-22 -30 -64 -127 -64 -150 0 -19 2 -21 10 -9 5 8 10 27
10 43 0 29 9 34 29 15 11 -11 12 -9 7 9 -4 13 0 35 9 53 17 34 17 62 -1 39z"/>
<path d="M4260 5808 c-151 -32 -234 -71 -307 -144 -74 -75 -93 -109 -100 -179
-6 -61 20 -197 43 -215 7 -7 14 -19 14 -27 0 -8 4 -12 9 -8 6 3 13 -10 17 -29
6 -33 46 -86 65 -86 5 0 9 -8 9 -18 0 -19 39 -62 56 -62 5 0 25 -14 44 -30 42
-36 47 -37 53 -7 3 16 5 14 6 -10 0 -17 -3 -35 -9 -38 -5 -3 -10 -1 -10 4 0 6
-4 11 -10 11 -5 0 -10 -11 -10 -25 0 -27 14 -33 26 -13 6 9 10 5 14 -12 7 -31
52 -40 76 -15 9 9 23 14 31 11 8 -4 20 -3 25 0 6 4 74 6 151 5 107 -2 143 -6
154 -17 9 -8 23 -12 34 -9 11 4 19 2 19 -4 0 -6 -7 -11 -16 -11 -9 0 -14 -5
-12 -11 5 -14 5 -14 55 1 37 11 40 15 30 31 -6 10 -8 22 -4 26 5 4 12 1 17 -7
7 -12 12 -11 29 4 17 16 25 16 55 6 80 -26 122 12 166 148 24 78 31 186 19
313 -8 77 -18 100 -53 118 -19 11 -28 27 -37 69 -7 30 -18 60 -25 67 -7 7 -10
16 -7 19 4 4 -3 14 -16 22 -14 10 -20 22 -16 32 3 9 3 13 -1 10 -3 -4 -26 6
-49 22 -24 16 -77 41 -118 55 -65 22 -92 25 -199 24 -83 0 -154 -7 -218 -21z
m593 -556 c-28 -38 -41 -38 -39 0 2 18 7 32 13 31 6 -1 17 12 24 30 l13 32 4
-34 c2 -23 -3 -43 -15 -59z m-807 -129 c21 -28 16 -39 -6 -15 -11 12 -20 24
-20 27 0 11 13 4 26 -12z m261 -15 c6 -5 13 -4 15 4 4 11 11 10 39 -1 19 -7
42 -14 52 -14 21 -2 22 -11 2 -27 -8 -7 -15 -18 -15 -25 0 -8 -15 -13 -42 -13
-35 0 -39 2 -20 9 12 4 22 13 22 19 0 17 -31 24 -51 12 -25 -16 -44 -15 -59 3
-10 12 -10 18 0 30 12 14 7 19 -13 16 -5 -1 -6 3 -2 8 6 10 45 -2 72 -21z
m-202 -58 c3 -5 1 -10 -4 -10 -6 0 -11 5 -11 10 0 6 2 10 4 10 3 0 8 -4 11
-10z m397 -1 c30 3 38 -15 16 -37 -17 -17 -67 13 -68 41 0 5 6 5 12 0 7 -4 25
-6 40 -4z m295 -25 c-3 -3 -12 -4 -19 -1 -8 3 -5 6 6 6 11 1 17 -2 13 -5z
m-432 -39 c29 -13 29 -13 5 -14 -14 0 -34 6 -44 14 -26 19 -2 19 39 0z m-150
-15 c-3 -4 4 -10 15 -13 11 -3 20 -11 19 -19 0 -10 -2 -10 -6 0 -2 6 -12 12
-20 12 -9 0 -13 -6 -9 -15 3 -8 1 -15 -4 -15 -6 0 -10 16 -10 36 0 21 4 33 10
29 6 -4 8 -10 5 -15z m549 14 c20 -8 20 -18 0 -38 -23 -24 -37 -19 -32 9 3 14
1 25 -3 25 -5 0 -9 -8 -9 -17 0 -15 -2 -16 -10 -3 -14 23 18 38 54 24z m-409
-24 c13 -6 15 -9 5 -9 -8 0 -22 4 -30 9 -18 12 -2 12 25 0z m92 4 c-3 -3 -12
-4 -19 -1 -8 3 -5 6 6 6 11 1 17 -2 13 -5z m-157 -14 c0 -5 -5 -10 -11 -10 -5
0 -7 5 -4 10 3 6 8 10 11 10 2 0 4 -4 4 -10z"/>
<path d="M6973 5823 c9 -2 23 -2 30 0 6 3 -1 5 -18 5 -16 0 -22 -2 -12 -5z"/>
<path d="M2961 5794 c0 -11 3 -14 6 -6 3 7 2 16 -1 19 -3 4 -6 -2 -5 -13z"/>
<path d="M3903 5768 c-13 -6 -23 -14 -23 -19 0 -4 11 -2 25 4 14 7 25 15 25
20 0 8 1 9 -27 -5z"/>
<path d="M8642 5723 c1 -40 2 -42 5 -14 3 19 12 41 21 48 15 11 15 12 -5 13
-21 0 -23 -4 -21 -47z"/>
<path d="M4911 5688 c-1 -55 12 -77 25 -43 8 20 24 9 24 -18 1 -21 1 -21 11
-3 8 13 8 20 0 26 -7 4 -11 11 -10 16 1 5 0 25 -1 44 -2 25 -4 29 -7 13 -2
-13 -8 -23 -12 -23 -4 0 -13 10 -19 23 -9 19 -11 13 -11 -35z"/>
<path d="M3641 5638 c-1 -15 4 -30 9 -33 12 -7 12 12 0 40 -8 18 -9 17 -9 -7z"/>
<path d="M9803 5653 c-24 -2 -43 -8 -43 -13 0 -5 -9 -12 -20 -15 -11 -4 -18
-10 -15 -15 3 -5 0 -10 -7 -12 -7 -3 -5 -11 7 -25 15 -18 30 -21 106 -22 85
-2 90 -1 118 27 l31 29 -23 12 c-19 10 -41 17 -97 33 -8 2 -34 3 -57 1z"/>
<path d="M3735 5630 c-8 -13 4 -32 16 -25 12 8 12 35 0 35 -6 0 -13 -4 -16
-10z"/>
<path d="M10378 5633 c7 -3 16 -2 19 1 4 3 -2 6 -13 5 -11 0 -14 -3 -6 -6z"/>
<path d="M10004 5621 c5 -8 146 -4 155 5 2 2 -33 4 -78 4 -45 0 -80 -4 -77 -9z"/>
<path d="M10460 5620 c0 -5 5 -10 10 -10 6 0 10 5 10 10 0 6 -4 10 -10 10 -5
0 -10 -4 -10 -10z"/>
<path d="M10378 5603 c12 -2 32 -2 45 0 12 2 2 4 -23 4 -25 0 -35 -2 -22 -4z"/>
<path d="M10677 5593 c-3 -5 -1 -17 4 -28 7 -17 8 -17 8 8 1 27 -4 34 -12 20z"/>
<path d="M2857 5531 c-2 -10 -1 -25 4 -32 6 -10 9 -4 9 19 0 36 -5 42 -13 13z"/>
<path d="M3623 5533 c-15 -6 -17 -49 -3 -58 16 -10 12 -91 -5 -105 -8 -7 -12
-16 -9 -22 3 -5 12 -4 20 3 12 10 16 8 21 -10 4 -16 10 -20 22 -14 9 4 40 7
69 5 70 -2 65 19 -7 33 -61 12 -81 33 -81 87 0 21 -5 38 -11 38 -7 0 -9 10 -5
25 4 14 5 25 4 24 -2 0 -9 -3 -15 -6z"/>
<path d="M10058 5503 c7 -3 16 -2 19 1 4 3 -2 6 -13 5 -11 0 -14 -3 -6 -6z"/>
<path d="M5000 5489 c0 -5 5 -7 10 -4 6 3 10 8 10 11 0 2 -4 4 -10 4 -5 0 -10
-5 -10 -11z"/>
<path d="M8698 5493 c7 -3 16 -2 19 1 4 3 -2 6 -13 5 -11 0 -14 -3 -6 -6z"/>
<path d="M6850 5460 c-12 -8 -11 -10 8 -10 12 0 22 5 22 10 0 13 -11 13 -30 0z"/>
<path d="M3792 5440 c0 -14 2 -19 5 -12 2 6 2 18 0 25 -3 6 -5 1 -5 -13z"/>
<path d="M3718 5433 c7 -3 16 -2 19 1 4 3 -2 6 -13 5 -11 0 -14 -3 -6 -6z"/>
<path d="M3800 5376 c0 -8 4 -17 9 -20 5 -4 7 3 4 14 -6 23 -13 26 -13 6z"/>
<path d="M3620 5304 c0 -8 5 -12 10 -9 6 3 10 10 10 16 0 5 -4 9 -10 9 -5 0
-10 -7 -10 -16z"/>
<path d="M2851 5214 c0 -11 3 -14 6 -6 3 7 2 16 -1 19 -3 4 -6 -2 -5 -13z"/>
<path d="M4250 4880 c0 -5 7 -10 15 -10 8 0 15 5 15 10 0 6 -7 10 -15 10 -8 0
-15 -4 -15 -10z"/>
<path d="M8052 4874 c-39 -27 -104 -124 -139 -207 -18 -43 -33 -79 -33 -80 0
-1 78 -2 173 -3 94 0 185 -4 200 -7 28 -8 28 -7 22 30 -14 81 -77 233 -97 233
-5 0 -5 -7 0 -17 15 -32 15 -103 0 -103 -20 0 -60 118 -48 141 8 13 5 18 -13
23 -33 9 -40 8 -65 -10z"/>
<path d="M10131 4774 c-18 -15 -51 -69 -82 -132 -28 -59 -57 -117 -63 -129 -8
-15 -9 -85 -4 -235 11 -330 32 -1040 31 -1068 0 -14 4 -115 8 -225 5 -110 13
-355 19 -545 6 -190 13 -371 15 -403 2 -32 2 -64 -2 -72 -4 -13 -47 -15 -269
-15 -169 0 -264 -4 -264 -10 0 -9 119 -13 425 -15 105 -1 102 0 108 -41 7 -45
51 -84 135 -124 72 -34 135 -39 188 -14 32 15 34 20 36 68 0 28 1 59 0 69 -1
14 7 17 44 17 55 0 84 14 84 40 0 20 3 21 85 26 17 1 38 2 48 3 10 0 17 9 17
21 0 22 -6 23 -87 11 -29 -4 -58 -4 -65 0 -14 9 -25 138 -27 307 -1 50 -5 92
-10 92 -5 0 -12 10 -14 23 l-4 22 -2 -22 c-1 -16 -7 -23 -21 -23 -11 0 -20 6
-20 13 0 9 -3 8 -9 -2 -7 -10 -25 -12 -82 -7 -41 4 -96 7 -123 6 -73 -1 -144
19 -152 44 -4 12 -8 80 -9 151 -2 126 6 207 25 253 7 17 6 22 -5 22 -16 0 -16
57 1 243 4 52 3 77 -4 77 -6 0 -13 8 -16 18 -3 9 -3 -27 -1 -80 3 -60 1 -98
-5 -98 -9 0 -17 125 -12 190 9 120 10 170 3 135 l-7 -40 -7 35 c-3 19 -9 177
-13 350 -4 173 -8 338 -9 365 -8 282 -8 396 0 404 9 8 211 20 344 21 l53 0 -7
38 c-9 49 -68 161 -111 209 l-33 38 11 -31 c6 -17 8 -40 3 -50 -6 -15 -8 -16
-13 -4 -3 8 -11 18 -18 23 -7 4 -16 23 -20 42 -5 30 -10 35 -34 35 -16 0 -42
-11 -59 -26z m-68 -1879 c4 -68 3 -87 -3 -60 -9 39 -14 172 -6 164 2 -2 6 -49
9 -104z"/>
<path d="M3110 4742 c0 -12 19 -26 26 -19 2 2 -2 10 -11 17 -9 8 -15 8 -15 2z"/>
<path d="M2870 4610 c-12 -8 -10 -10 8 -10 13 0 20 4 17 10 -7 12 -6 12 -25 0z"/>
<path d="M7858 4512 c-20 -68 -20 -70 -53 -862 -3 -69 -10 -206 -16 -305 -5
-99 -14 -306 -19 -460 -12 -332 -39 -757 -49 -768 -12 -13 -577 108 -616 132
-5 3 -64 20 -130 37 -102 27 -260 77 -330 104 -66 25 -99 47 -105 70 -3 14 2
97 12 185 10 88 17 173 16 189 -3 30 -4 30 -58 28 -83 -4 -229 23 -246 45 -12
16 -13 6 -14 -77 0 -52 -3 -214 -7 -359 l-6 -264 57 5 c37 3 59 1 61 -6 2 -6
8 -65 15 -131 6 -66 16 -128 21 -137 6 -12 6 -18 -2 -18 -8 0 -10 -40 -4 -150
8 -169 11 -163 -70 -136 -22 7 -53 16 -68 20 l-28 7 2 -103 c1 -97 12 -138 34
-138 6 0 16 -9 23 -20 16 -26 32 -17 33 18 2 24 2 24 6 5 2 -13 8 -23 13 -23
5 0 24 -15 42 -34 18 -18 48 -41 67 -51 19 -10 43 -27 54 -39 13 -15 20 -17
23 -8 3 6 10 12 14 12 5 0 3 -19 -5 -41 -8 -23 -15 -52 -15 -64 0 -12 -8 -29
-18 -38 -23 -21 -32 -21 -32 -2 0 8 -31 47 -70 86 -38 40 -70 76 -70 80 0 5
-6 9 -13 9 -7 0 -27 25 -46 56 -18 31 -37 52 -41 47 -4 -4 -12 -217 -19 -473
-14 -575 -14 -650 0 -650 6 0 13 9 16 20 7 25 30 26 36 2 2 -9 2 1 0 24 -3 27
0 44 9 52 12 10 14 6 10 -21 -3 -26 -2 -30 8 -20 8 7 13 33 12 60 0 39 2 44
11 28 10 -18 11 -16 23 15 6 19 11 46 9 60 -1 14 0 19 2 12 8 -22 20 -13 27
19 3 17 19 59 35 92 46 99 58 127 91 212 17 44 42 104 55 133 14 29 25 61 25
71 0 10 7 24 15 31 13 11 15 8 15 -13 0 -14 -6 -32 -13 -39 -8 -7 -17 -26 -21
-42 -6 -25 -63 -167 -102 -253 -8 -17 -14 -35 -14 -39 0 -9 -57 -148 -96 -231
-40 -88 -94 -234 -94 -254 0 -25 15 -24 40 1 19 19 22 19 58 5 46 -20 49 -23
58 -59 5 -21 4 -27 -5 -22 -6 4 -11 17 -11 29 0 13 -3 17 -8 11 -12 -18 -102
-37 -117 -24 -7 6 -16 7 -19 2 -3 -5 -19 -7 -36 -4 -27 4 -30 2 -30 -22 0 -26
1 -26 59 -22 48 3 58 1 54 -10 -3 -8 -11 -14 -19 -14 -10 0 -14 -12 -14 -40
l0 -40 83 0 c51 0 88 5 95 12 9 9 12 9 12 0 0 -9 213 -12 933 -11 l932 1 -121
23 c-67 13 -130 28 -141 33 -10 6 -39 13 -63 17 -25 3 -56 10 -70 14 -14 5
-43 14 -65 20 -22 6 -74 20 -115 31 -41 11 -83 25 -92 30 -10 5 -34 14 -55 19
-58 15 -167 53 -173 61 -3 3 -26 12 -53 20 -50 13 -71 30 -39 30 11 0 86 -14
168 -31 144 -30 166 -34 284 -58 30 -6 163 -24 295 -41 132 -17 292 -37 355
-46 128 -16 289 -33 395 -40 83 -5 242 -20 375 -35 53 -6 204 -9 343 -7 207 4
245 2 225 -8 -13 -7 -40 -13 -60 -14 -21 0 -38 -4 -38 -10 0 -7 175 -10 505
-10 l505 0 0 211 c0 210 0 210 -21 204 -13 -5 -25 -2 -29 6 -7 10 -15 8 -37
-7 l-28 -19 35 -6 35 -5 -27 -8 c-16 -5 -35 -6 -43 -2 -8 3 -15 2 -15 -2 0
-11 -77 -42 -104 -42 -14 0 -27 -4 -31 -9 -3 -5 -31 -12 -63 -16 -31 -3 -84
-10 -117 -15 -124 -20 -497 -40 -749 -40 -331 1 -769 33 -1066 80 -74 12 -178
28 -230 36 -258 40 -861 191 -975 244 -11 5 -67 25 -125 44 -58 19 -136 48
-175 64 -124 52 -200 86 -205 92 -3 3 -31 19 -62 35 -62 30 -67 38 -42 74 15
20 22 22 63 16 97 -14 425 -105 526 -146 11 -4 56 -22 100 -39 44 -18 105 -42
136 -55 l57 -23 36 24 c38 26 50 53 44 100 -3 25 -7 29 -31 26 -24 -2 -30 3
-46 40 -10 24 -27 63 -38 88 -78 174 -98 221 -113 265 -14 40 -98 245 -140
340 -15 35 -62 148 -76 185 -28 73 -29 150 -2 134 8 -5 9 1 4 17 -4 13 -12 44
-18 68 -10 43 -10 45 27 79 35 33 36 37 30 81 -8 54 -18 66 -62 74 -25 5 -49
-3 -114 -36 -80 -41 -83 -44 -103 -98 -12 -31 -26 -62 -32 -70 -6 -8 -18 -30
-26 -49 -40 -88 -119 -257 -128 -272 -6 -10 -10 -24 -10 -32 0 -7 -9 -25 -20
-39 -11 -14 -20 -35 -20 -47 0 -12 -6 -27 -13 -35 -12 -11 -13 -5 -9 36 3 32
1 49 -7 49 -6 0 -14 18 -17 40 -4 22 -9 40 -13 40 -5 0 -7 88 -3 129 1 8 10
11 22 8 18 -5 20 0 20 49 0 30 -4 54 -10 54 -5 0 -10 18 -10 40 0 22 -4 40
-10 40 -5 0 -10 18 -10 40 0 22 5 40 10 40 6 0 10 33 10 79 0 83 5 91 51 91
11 0 17 5 14 10 -3 6 -15 10 -26 10 -10 0 -19 5 -19 10 0 6 9 10 20 10 29 0
25 17 -5 22 -21 4 -25 1 -25 -18 0 -33 -10 -54 -27 -54 -12 0 -14 10 -11 46 3
43 2 46 -24 51 -16 3 -28 10 -28 15 0 5 8 7 18 4 47 -14 110 -28 132 -29 14
-1 27 -4 30 -7 10 -11 504 -132 670 -165 41 -8 111 -22 155 -30 44 -9 100 -19
125 -23 l45 -7 1 -70 c1 -90 12 -109 75 -130 62 -21 192 -16 250 9 43 18 99
79 99 106 0 11 6 20 13 20 22 -1 189 -19 317 -34 69 -9 148 -15 175 -15 28 1
-5 7 -75 14 -69 7 -157 18 -195 24 -39 7 -97 15 -130 19 l-60 7 0 235 0 235
-110 6 c-118 6 -234 27 -215 39 8 5 7 9 -4 13 -13 5 -15 16 -11 44 3 21 9 142
14 268 6 127 13 244 16 260 3 17 7 104 9 195 2 91 6 244 10 340 4 96 9 262 9
367 1 106 5 193 10 193 4 0 7 48 7 108 0 59 4 133 8 165 l9 57 -31 0 c-29 0
-32 -4 -48 -58z m29 -414 c-2 -13 -4 -3 -4 22 0 25 2 35 4 23 2 -13 2 -33 0
-45z m-887 -2018 c0 -5 -5 -10 -11 -10 -5 0 -7 5 -4 10 3 6 8 10 11 10 2 0 4
-4 4 -10z m785 -150 c3 -5 -1 -10 -9 -10 -9 0 -16 5 -16 10 0 6 4 10 9 10 6 0
13 -4 16 -10z m-741 -432 c41 -84 93 -198 116 -253 72 -169 120 -288 120 -297
0 -11 -36 -10 -58 2 -24 13 -109 40 -130 40 -9 0 -26 7 -36 15 -11 8 -28 15
-38 15 -10 0 -27 5 -38 10 -11 6 -29 15 -40 20 -11 6 -27 10 -35 10 -9 0 -35
9 -57 20 -23 11 -52 20 -65 20 -29 0 -32 35 -3 50 15 8 18 17 13 40 -4 22 -1
31 10 36 9 3 21 22 27 42 7 21 20 56 31 79 10 24 19 54 19 68 0 14 4 25 8 25
5 0 24 47 43 105 19 58 35 105 37 105 1 0 36 -69 76 -152z m-271 0 c-4 -13
-12 -32 -20 -43 -13 -19 -14 -18 -8 10 10 47 14 55 24 55 5 0 7 -10 4 -22z
m-500 -43 c-8 -22 -22 -18 -16 5 3 11 9 17 14 15 4 -3 6 -12 2 -20z m406 -197
c-5 -17 -13 -34 -17 -37 -5 -3 -12 -19 -17 -36 -4 -16 -10 -24 -12 -18 -6 17
16 84 35 106 21 23 22 22 11 -15z m-219 -167 c0 -6 -4 -13 -10 -16 -5 -3 -10
1 -10 9 0 9 5 16 10 16 6 0 10 -4 10 -9z m820 -181 c0 -5 -4 -10 -10 -10 -5 0
-10 5 -10 10 0 6 5 10 10 10 6 0 10 -4 10 -10z m66 -15 c15 -13 26 -26 23 -29
-8 -8 -69 35 -63 45 7 12 7 12 40 -16z m-950 -756 c10 -17 -21 -41 -50 -37
l-27 3 21 23 c23 24 45 28 56 11z m11 -86 c-3 -10 -5 -4 -5 12 0 17 2 24 5 18
2 -7 2 -21 0 -30z m3513 -23 c0 -5 -4 -10 -9 -10 -6 0 -13 5 -16 10 -3 6 1 10
9 10 9 0 16 -4 16 -10z"/>
<path d="M4145 4090 c-7 -12 2 -12 30 0 19 8 19 9 -2 9 -12 1 -25 -3 -28 -9z"/>
<path d="M4969 3942 l42 -37 11 -103 c7 -62 8 -106 2 -112 -5 -5 -35 -10 -66
-12 -32 -1 -58 -6 -58 -10 0 -3 24 -4 54 -1 34 4 56 2 60 -6 4 -6 18 -11 32
-11 18 0 24 5 22 18 -1 9 1 23 5 30 5 8 3 12 -7 12 -12 0 -16 11 -16 43 0 23
-4 69 -10 101 -10 65 -34 99 -82 115 -29 10 -28 9 11 -27z m91 -272 c0 -5 -4
-10 -10 -10 -5 0 -10 5 -10 10 0 6 5 10 10 10 6 0 10 -4 10 -10z"/>
<path d="M4724 3847 c3 -10 6 -24 6 -30 0 -8 4 -7 12 1 10 10 8 16 -6 30 -18
16 -19 16 -12 -1z"/>
<path d="M4720 3776 c0 -17 34 -31 50 -21 6 4 18 1 26 -6 20 -16 30 -4 14 16
-8 10 -22 14 -33 11 -11 -3 -29 -1 -39 5 -14 7 -18 6 -18 -5z"/>
<path d="M3048 3663 c7 -3 16 -2 19 1 4 3 -2 6 -13 5 -11 0 -14 -3 -6 -6z"/>
<path d="M6176 3573 c-4 -9 -2 -21 4 -27 7 -7 10 -2 10 17 0 31 -5 34 -14 10z"/>
<path d="M4880 3521 c0 -5 10 -13 21 -16 29 -10 169 4 169 17 0 6 -13 7 -32 2
-39 -8 -133 -8 -148 1 -5 3 -10 2 -10 -4z"/>
<path d="M4048 3515 c-3 -3 -39 -15 -79 -26 -41 -11 -88 -27 -104 -34 -49 -22
-132 -30 -152 -14 -15 13 -15 12 -4 -8 6 -13 17 -23 24 -23 20 0 199 52 327
94 35 11 39 15 19 15 -14 1 -28 -1 -31 -4z"/>
<path d="M4635 3510 c3 -6 52 -10 111 -10 63 0 104 4 104 10 0 6 -44 10 -111
10 -71 0 -108 -4 -104 -10z"/>
<path d="M10051 3454 c0 -11 3 -14 6 -6 3 7 2 16 -1 19 -3 4 -6 -2 -5 -13z"/>
<path d="M4308 3383 c12 -2 32 -2 45 0 12 2 2 4 -23 4 -25 0 -35 -2 -22 -4z"/>
<path d="M4423 3383 c15 -2 39 -2 55 0 15 2 2 4 -28 4 -30 0 -43 -2 -27 -4z"/>
<path d="M10071 3344 c0 -11 3 -14 6 -6 3 7 2 16 -1 19 -3 4 -6 -2 -5 -13z"/>
<path d="M6386 3285 c-11 -8 -15 -15 -9 -15 6 0 16 7 23 15 16 19 11 19 -14 0z"/>
<path d="M10072 3260 c0 -14 2 -19 5 -12 2 6 2 18 0 25 -3 6 -5 1 -5 -13z"/>
<path d="M5006 3048 c4 -29 14 -68 21 -87 17 -40 25 -129 12 -137 -5 -3 -9
-15 -9 -27 0 -20 2 -19 19 8 10 17 15 36 11 44 -4 7 -5 32 -3 55 3 23 0 60 -6
81 -6 23 -7 41 -2 43 10 3 -29 71 -42 72 -4 0 -5 -24 -1 -52z"/>
<path d="M5070 2964 c0 -74 13 -81 38 -20 16 42 5 86 -23 86 -12 0 -15 -14
-15 -66z"/>
<path d="M3211 2994 c0 -11 3 -14 6 -6 3 7 2 16 -1 19 -3 4 -6 -2 -5 -13z"/>
<path d="M6330 2913 c-21 -22 -22 -25 -4 -15 24 13 51 42 38 42 -5 0 -20 -12
-34 -27z"/>
<path d="M10080 2703 c0 -36 4 -63 10 -63 13 0 13 90 0 110 -7 11 -10 -3 -10
-47z"/>
<path d="M6575 2730 c-3 -5 -1 -10 4 -10 6 0 11 5 11 10 0 6 -2 10 -4 10 -3 0
-8 -4 -11 -10z"/>
<path d="M3160 2646 c0 -73 24 -123 62 -132 21 -4 35 -1 49 12 23 21 24 32 4
81 -13 33 -54 68 -107 91 -5 2 -8 -21 -8 -52z m107 -93 c-3 -10 -5 -4 -5 12 0
17 2 24 5 18 2 -7 2 -21 0 -30z"/>
<path d="M5103 2558 c-45 -15 -41 -27 7 -26 25 0 45 7 56 19 16 18 16 19 -7
18 -13 -1 -39 -6 -56 -11z"/>
<path d="M10198 2423 c7 -3 16 -2 19 1 4 3 -2 6 -13 5 -11 0 -14 -3 -6 -6z"/>
<path d="M8728 1973 c7 -3 16 -2 19 1 4 3 -2 6 -13 5 -11 0 -14 -3 -6 -6z"/>
<path d="M9428 1943 c18 -2 45 -2 60 0 15 2 0 4 -33 4 -33 0 -45 -2 -27 -4z"/>
<path d="M10618 1943 c7 -3 16 -2 19 1 4 3 -2 6 -13 5 -11 0 -14 -3 -6 -6z"/>
<path d="M10551 1924 c0 -11 3 -14 6 -6 3 7 2 16 -1 19 -3 4 -6 -2 -5 -13z"/>
<path d="M4107 1913 c-24 -88 -28 -125 -18 -175 6 -29 12 -102 13 -161 3 -149
18 -98 19 65 0 72 5 141 11 153 6 14 8 46 4 79 -7 55 -20 72 -29 39z"/>
<path d="M10650 1923 c8 -4 20 -13 27 -22 11 -14 12 -13 13 7 0 18 -5 22 -27
21 -17 0 -22 -3 -13 -6z"/>
<path d="M7137 1853 c-2 -4 -1 -17 3 -27 6 -19 7 -19 14 -1 7 19 -8 44 -17 28z"/>
<path d="M6650 1640 c0 -11 5 -20 10 -20 6 0 10 9 10 20 0 11 -4 20 -10 20 -5
0 -10 -9 -10 -20z"/>
<path d="M10681 1414 c0 -11 3 -14 6 -6 3 7 2 16 -1 19 -3 4 -6 -2 -5 -13z"/>
<path d="M10660 1334 c-30 -61 -41 -105 -58 -231 -6 -39 -13 -77 -17 -83 -4
-6 -4 -23 0 -38 7 -25 8 -25 15 -7 7 15 9 9 9 -23 1 -24 -4 -53 -11 -65 -6
-12 -13 -39 -14 -62 -2 -22 -13 -64 -25 -93 -19 -46 -20 -56 -9 -78 11 -19 11
-34 2 -76 -12 -51 -6 -72 31 -99 5 -3 7 -10 5 -15 -1 -5 8 -11 22 -12 14 -2
29 -8 34 -13 6 -5 19 -9 29 -9 16 0 17 3 8 14 -8 10 -9 16 -1 21 5 3 10 42 10
91 0 83 0 84 -25 84 -14 0 -25 5 -25 10 0 6 6 10 13 10 29 0 36 76 37 398 0
177 -2 322 -4 322 -2 0 -14 -21 -26 -46z"/>
<path d="M7400 1210 c0 -12 11 -33 25 -48 28 -30 32 -18 11 33 -16 39 -36 46
-36 15z"/>
<path d="M7461 1074 c0 -11 3 -14 6 -6 3 7 2 16 -1 19 -3 4 -6 -2 -5 -13z"/>
<path d="M7475 1010 c-4 -6 0 -19 8 -28 8 -9 12 -24 9 -32 -5 -13 -3 -13 12 0
11 8 14 16 7 18 -6 2 -11 12 -11 22 0 23 -16 35 -25 20z"/>
<path d="M8554 924 c3 -9 6 -20 6 -25 0 -5 6 -9 14 -9 8 0 17 -14 21 -31 7
-31 36 -52 43 -31 6 19 22 14 22 -7 0 -21 18 -23 295 -37 72 -3 144 -8 160 -9
233 -23 408 -36 418 -32 15 6 53 74 46 82 -6 5 -468 40 -724 55 -88 4 -173 14
-190 20 -16 7 -50 19 -74 26 -38 12 -42 12 -37 -2z"/>
<path d="M9040 485 c0 -7 18 -15 42 -18 49 -7 56 -3 39 17 -15 18 -81 19 -81
1z"/>
<path d="M6231 290 c0 -8 4 -24 9 -35 l9 -20 0 20 c0 11 -4 27 -9 35 -9 13
-10 13 -9 0z"/>
<path d="M6193 209 c0 -27 3 -49 8 -49 11 0 12 87 2 93 -5 3 -9 -17 -10 -44z"/>
<path d="M9128 33 c6 -2 18 -2 25 0 6 3 1 5 -13 5 -14 0 -19 -2 -12 -5z"/>
<path d="M9255 23 c-36 -9 -41 -23 -7 -23 22 0 32 5 32 15 0 8 -1 14 -2 14 -2
-1 -12 -3 -23 -6z"/>
<path d="M9360 10 c0 -5 18 -10 40 -10 22 0 40 5 40 10 0 6 -18 10 -40 10 -22
0 -40 -4 -40 -10z"/>
</g>
</svg>
